<?xml version="1.0" encoding="UTF-8" standalone="no"?>
<!DOCTYPE svg PUBLIC "-//W3C//DTD SVG 1.1//EN"
 "http://www.w3.org/Graphics/SVG/1.1/DTD/svg11.dtd">
<!-- Generated by graphviz version 2.40.1 (20161225.0304)
 -->
<!-- Title: scheduleClashes Pages: 1 -->
<svg width="423pt" height="336pt"
 viewBox="0.00 0.00 423.00 336.00" xmlns="http://www.w3.org/2000/svg" xmlns:xlink="http://www.w3.org/1999/xlink">
<g id="graph0" class="graph" transform="scale(1 1) rotate(0) translate(4 332)">
<title>scheduleClashes</title>
<polygon fill="#ffffff" stroke="transparent" points="-4,4 -4,-332 419,-332 419,4 -4,4"/>
<!-- b6a -->
<g id="node1" class="node">
<title>b6a</title>
<ellipse fill="none" stroke="#000000" cx="48.5" cy="-18" rx="27" ry="18"/>
<text text-anchor="middle" x="48.5" y="-14.3" font-family="Times,serif" font-size="14.00" fill="#000000">6h</text>
</g>
<!-- i6a -->
<g id="node2" class="node">
<title>i6a</title>
<ellipse fill="none" stroke="#000000" cx="205" cy="-18" rx="27" ry="18"/>
<text text-anchor="middle" x="205" y="-14.3" font-family="Times,serif" font-size="14.00" fill="#000000">6h</text>
</g>
<!-- b6a&#45;&#45;i6a -->
<g id="edge1" class="edge">
<title>b6a&#45;&#45;i6a</title>
<path fill="none" stroke="#000000" d="M75.7602,-18C104.3972,-18 149.172,-18 177.7901,-18"/>
</g>
<!-- a6 -->
<g id="node3" class="node">
<title>a6</title>
<ellipse fill="none" stroke="#000000" cx="364" cy="-18" rx="27" ry="18"/>
<text text-anchor="middle" x="364" y="-14.3" font-family="Times,serif" font-size="14.00" fill="#000000">6h</text>
</g>
<!-- i6a&#45;&#45;a6 -->
<g id="edge2" class="edge">
<title>i6a&#45;&#45;a6</title>
<path fill="none" stroke="#000000" d="M232.3331,-18C261.545,-18 307.5812,-18 336.758,-18"/>
</g>
<!-- b6b -->
<g id="node4" class="node">
<title>b6b</title>
<ellipse fill="none" stroke="#000000" cx="48.5" cy="-72" rx="27" ry="18"/>
<text text-anchor="middle" x="48.5" y="-68.3" font-family="Times,serif" font-size="14.00" fill="#000000">6h</text>
</g>
<!-- i6b -->
<g id="node5" class="node">
<title>i6b</title>
<ellipse fill="none" stroke="#000000" cx="205" cy="-72" rx="27" ry="18"/>
<text text-anchor="middle" x="205" y="-68.3" font-family="Times,serif" font-size="14.00" fill="#000000">6h</text>
</g>
<!-- b6b&#45;&#45;i6b -->
<g id="edge3" class="edge">
<title>b6b&#45;&#45;i6b</title>
<path fill="none" stroke="#000000" d="M75.7602,-72C104.3972,-72 149.172,-72 177.7901,-72"/>
</g>
<!-- a4a -->
<g id="node6" class="node">
<title>a4a</title>
<ellipse fill="none" stroke="#000000" cx="364" cy="-72" rx="27" ry="18"/>
<text text-anchor="middle" x="364" y="-68.3" font-family="Times,serif" font-size="14.00" fill="#000000">4h</text>
</g>
<!-- i6b&#45;&#45;a4a -->
<g id="edge4" class="edge">
<title>i6b&#45;&#45;a4a</title>
<path fill="none" stroke="#000000" stroke-dasharray="5,2" d="M232.3331,-72C261.545,-72 307.5812,-72 336.758,-72"/>
<text text-anchor="middle" x="288" y="-75.8" font-family="Times,serif" font-size="14.00" fill="#000000">4h</text>
</g>
<!-- b4 -->
<g id="node7" class="node">
<title>b4</title>
<ellipse fill="none" stroke="#000000" cx="48.5" cy="-126" rx="27" ry="18"/>
<text text-anchor="middle" x="48.5" y="-122.3" font-family="Times,serif" font-size="14.00" fill="#000000">4h</text>
</g>
<!-- i4a -->
<g id="node8" class="node">
<title>i4a</title>
<ellipse fill="none" stroke="#000000" cx="205" cy="-126" rx="27" ry="18"/>
<text text-anchor="middle" x="205" y="-122.3" font-family="Times,serif" font-size="14.00" fill="#000000">4h</text>
</g>
<!-- b4&#45;&#45;i4a -->
<g id="edge5" class="edge">
<title>b4&#45;&#45;i4a</title>
<path fill="none" stroke="#000000" d="M75.7602,-126C104.3972,-126 149.172,-126 177.7901,-126"/>
</g>
<!-- a4b -->
<g id="node9" class="node">
<title>a4b</title>
<ellipse fill="none" stroke="#000000" cx="364" cy="-126" rx="27" ry="18"/>
<text text-anchor="middle" x="364" y="-122.3" font-family="Times,serif" font-size="14.00" fill="#000000">4h</text>
</g>
<!-- i4a&#45;&#45;a4b -->
<g id="edge6" class="edge">
<title>i4a&#45;&#45;a4b</title>
<path fill="none" stroke="#000000" d="M232.3331,-126C261.545,-126 307.5812,-126 336.758,-126"/>
</g>
<!-- b5 -->
<g id="node10" class="node">
<title>b5</title>
<ellipse fill="none" stroke="#000000" cx="48.5" cy="-245" rx="27" ry="18"/>
<text text-anchor="middle" x="48.5" y="-241.3" font-family="Times,serif" font-size="14.00" fill="#000000">5h</text>
</g>
<!-- i4b -->
<g id="node11" class="node">
<title>i4b</title>
<ellipse fill="none" stroke="#000000" cx="205" cy="-256" rx="27" ry="18"/>
<text text-anchor="middle" x="205" y="-252.3" font-family="Times,serif" font-size="14.00" fill="#000000">4h</text>
</g>
<!-- b5&#45;&#45;i4b -->
<g id="edge7" class="edge">
<title>b5&#45;&#45;i4b</title>
<path fill="none" stroke="#000000" stroke-dasharray="5,2" d="M75.4033,-246.891C104.0685,-248.9058 149.1929,-252.0775 177.924,-254.0969"/>
<text text-anchor="middle" x="122" y="-253.8" font-family="Times,serif" font-size="14.00" fill="#000000">4h</text>
</g>
<!-- i3 -->
<g id="node14" class="node">
<title>i3</title>
<ellipse fill="none" stroke="#000000" cx="205" cy="-191" rx="27" ry="18"/>
<text text-anchor="middle" x="205" y="-187.3" font-family="Times,serif" font-size="14.00" fill="#000000">3h</text>
</g>
<!-- b5&#45;&#45;i3 -->
<g id="edge10" class="edge">
<title>b5&#45;&#45;i3</title>
<path fill="none" stroke="#000000" stroke-dasharray="5,2" d="M72.6102,-236.6808C102.0194,-226.5332 151.4408,-209.4805 180.8625,-199.3286"/>
<text text-anchor="middle" x="122" y="-224.8" font-family="Times,serif" font-size="14.00" fill="#000000">1h</text>
</g>
<!-- a4c -->
<g id="node12" class="node">
<title>a4c</title>
<ellipse fill="none" stroke="#000000" cx="364" cy="-256" rx="27" ry="18"/>
<text text-anchor="middle" x="364" y="-252.3" font-family="Times,serif" font-size="14.00" fill="#000000">4h</text>
</g>
<!-- i4b&#45;&#45;a4c -->
<g id="edge8" class="edge">
<title>i4b&#45;&#45;a4c</title>
<path fill="none" stroke="#000000" d="M232.3331,-256C261.545,-256 307.5812,-256 336.758,-256"/>
</g>
<!-- b2 -->
<g id="node13" class="node">
<title>b2</title>
<ellipse fill="none" stroke="#000000" cx="48.5" cy="-180" rx="27" ry="18"/>
<text text-anchor="middle" x="48.5" y="-176.3" font-family="Times,serif" font-size="14.00" fill="#000000">2h</text>
</g>
<!-- b2&#45;&#45;i3 -->
<g id="edge9" class="edge">
<title>b2&#45;&#45;i3</title>
<path fill="none" stroke="#000000" stroke-dasharray="5,2" d="M75.7346,-179.5382C91.3449,-179.4737 111.295,-179.7297 129,-181 145.5926,-182.1905 164.1013,-184.6026 178.6989,-186.7594"/>
<text text-anchor="middle" x="122" y="-184.8" font-family="Times,serif" font-size="14.00" fill="#000000">2h</text>
</g>
<!-- beginner -->
<g id="node15" class="node">
<title>beginner</title>
<text text-anchor="middle" x="48.5" y="-306.3" font-family="Times,serif" font-size="14.00" fill="#000000">Beginner track</text>
</g>
<!-- intermediate -->
<g id="node16" class="node">
<title>intermediate</title>
<text text-anchor="middle" x="205" y="-306.3" font-family="Times,serif" font-size="14.00" fill="#000000">Intermediate track</text>
</g>
<!-- beginner&#45;&#45;intermediate -->
<g id="edge11" class="edge">
<title>beginner&#45;&#45;intermediate</title>
<path fill="none" stroke="#000000" d="M97.1597,-310C112.8622,-310 130.429,-310 146.7512,-310"/>
</g>
<!-- advanced -->
<g id="node17" class="node">
<title>advanced</title>
<text text-anchor="middle" x="364" y="-306.3" font-family="Times,serif" font-size="14.00" fill="#000000">Advanced track</text>
</g>
<!-- intermediate&#45;&#45;advanced -->
<g id="edge12" class="edge">
<title>intermediate&#45;&#45;advanced</title>
<path fill="none" stroke="#000000" d="M263.3029,-310C279.5222,-310 297.0113,-310 312.7905,-310"/>
</g>
</g>
</svg>
