<?xml version="1.0" encoding="UTF-8" standalone="no"?>
<!DOCTYPE svg PUBLIC "-//W3C//DTD SVG 1.1//EN"
 "http://www.w3.org/Graphics/SVG/1.1/DTD/svg11.dtd">
<!-- Generated by graphviz version 2.38.0 (20140413.2041)
 -->
<!-- Title: scheduleClashes Pages: 1 -->
<svg width="395pt" height="442pt"
 viewBox="0.00 0.00 395.00 442.30" xmlns="http://www.w3.org/2000/svg" xmlns:xlink="http://www.w3.org/1999/xlink">
<g id="graph0" class="graph" transform="scale(1 1) rotate(0) translate(4 438.295)">
<title>scheduleClashes</title>
<polygon fill="white" stroke="none" points="-4,4 -4,-438.295 391,-438.295 391,4 -4,4"/>
<!-- b6a -->
<g id="node1" class="node"><title>b6a</title>
<ellipse fill="none" stroke="black" cx="48" cy="-33.7598" rx="27" ry="18"/>
<text text-anchor="middle" x="48" y="-30.0598" font-family="Times,serif" font-size="14.00">6h</text>
</g>
<!-- i6a -->
<g id="node2" class="node"><title>i6a</title>
<ellipse fill="none" stroke="black" cx="191" cy="-33.7598" rx="27" ry="18"/>
<text text-anchor="middle" x="191" y="-30.0598" font-family="Times,serif" font-size="14.00">6h</text>
</g>
<!-- b6a&#45;&#45;i6a -->
<g id="edge1" class="edge"><title>b6a&#45;&#45;i6a</title>
<path fill="none" stroke="black" d="M57.3979,-16.6953C82.4168,5.51241 156.275,5.55193 181.468,-16.5768"/>
</g>
<!-- b6a&#45;&#45;i6a -->
<g id="edge3" class="edge"><title>b6a&#45;&#45;i6a</title>
<path fill="none" stroke="black" d="M65.7282,-20.0963C92.8649,-11.312 146.171,-11.3143 173.294,-20.1033"/>
</g>
<!-- b6a&#45;&#45;i6a -->
<g id="edge5" class="edge"><title>b6a&#45;&#45;i6a</title>
<path fill="none" stroke="black" d="M73.8834,-28.4684C99.4986,-26.5293 139.194,-26.5237 164.891,-28.4514"/>
</g>
<!-- b6a&#45;&#45;i6a -->
<g id="edge7" class="edge"><title>b6a&#45;&#45;i6a</title>
<path fill="none" stroke="black" d="M73.8834,-39.0513C99.4986,-40.9903 139.194,-40.996 164.891,-39.0683"/>
</g>
<!-- b6a&#45;&#45;i6a -->
<g id="edge9" class="edge"><title>b6a&#45;&#45;i6a</title>
<path fill="none" stroke="black" d="M65.7282,-47.4234C92.8649,-56.2077 146.171,-56.2053 173.294,-47.4163"/>
</g>
<!-- b6a&#45;&#45;i6a -->
<g id="edge11" class="edge"><title>b6a&#45;&#45;i6a</title>
<path fill="none" stroke="black" d="M57.3979,-50.8243C82.4168,-73.0321 156.275,-73.0716 181.468,-50.9429"/>
</g>
<!-- a6 -->
<g id="node3" class="node"><title>a6</title>
<ellipse fill="none" stroke="black" cx="336" cy="-33.7598" rx="27" ry="18"/>
<text text-anchor="middle" x="336" y="-30.0598" font-family="Times,serif" font-size="14.00">6h</text>
</g>
<!-- i6a&#45;&#45;a6 -->
<g id="edge2" class="edge"><title>i6a&#45;&#45;a6</title>
<path fill="none" stroke="black" d="M200.517,-16.6953C225.891,5.51241 300.797,5.55193 326.347,-16.5768"/>
</g>
<!-- i6a&#45;&#45;a6 -->
<g id="edge4" class="edge"><title>i6a&#45;&#45;a6</title>
<path fill="none" stroke="black" d="M208.966,-20.0963C236.487,-11.312 290.549,-11.3143 318.057,-20.1033"/>
</g>
<!-- i6a&#45;&#45;a6 -->
<g id="edge6" class="edge"><title>i6a&#45;&#45;a6</title>
<path fill="none" stroke="black" d="M216.909,-28.493C242.995,-26.5203 283.738,-26.5155 309.897,-28.4783"/>
</g>
<!-- i6a&#45;&#45;a6 -->
<g id="edge8" class="edge"><title>i6a&#45;&#45;a6</title>
<path fill="none" stroke="black" d="M216.909,-39.0267C242.995,-40.9993 283.738,-41.0042 309.897,-39.0413"/>
</g>
<!-- i6a&#45;&#45;a6 -->
<g id="edge10" class="edge"><title>i6a&#45;&#45;a6</title>
<path fill="none" stroke="black" d="M208.966,-47.4234C236.487,-56.2077 290.549,-56.2053 318.057,-47.4163"/>
</g>
<!-- i6a&#45;&#45;a6 -->
<g id="edge12" class="edge"><title>i6a&#45;&#45;a6</title>
<path fill="none" stroke="black" d="M200.517,-50.8243C225.891,-73.0321 300.797,-73.0716 326.347,-50.9429"/>
</g>
<!-- b6b -->
<g id="node4" class="node"><title>b6b</title>
<ellipse fill="none" stroke="black" cx="48" cy="-108.76" rx="27" ry="18"/>
<text text-anchor="middle" x="48" y="-105.06" font-family="Times,serif" font-size="14.00">6h</text>
</g>
<!-- i6b -->
<g id="node5" class="node"><title>i6b</title>
<ellipse fill="none" stroke="black" cx="191" cy="-108.76" rx="27" ry="18"/>
<text text-anchor="middle" x="191" y="-105.06" font-family="Times,serif" font-size="14.00">6h</text>
</g>
<!-- b6b&#45;&#45;i6b -->
<g id="edge13" class="edge"><title>b6b&#45;&#45;i6b</title>
<path fill="none" stroke="black" d="M57.3979,-91.6953C82.4168,-69.4876 156.275,-69.4481 181.468,-91.5768"/>
</g>
<!-- b6b&#45;&#45;i6b -->
<g id="edge14" class="edge"><title>b6b&#45;&#45;i6b</title>
<path fill="none" stroke="black" d="M65.7282,-95.0963C92.8649,-86.312 146.171,-86.3143 173.294,-95.1033"/>
</g>
<!-- b6b&#45;&#45;i6b -->
<g id="edge15" class="edge"><title>b6b&#45;&#45;i6b</title>
<path fill="none" stroke="black" d="M73.8834,-103.468C99.4986,-101.529 139.194,-101.524 164.891,-103.451"/>
</g>
<!-- b6b&#45;&#45;i6b -->
<g id="edge16" class="edge"><title>b6b&#45;&#45;i6b</title>
<path fill="none" stroke="black" d="M73.8834,-114.051C99.4986,-115.99 139.194,-115.996 164.891,-114.068"/>
</g>
<!-- b6b&#45;&#45;i6b -->
<g id="edge17" class="edge"><title>b6b&#45;&#45;i6b</title>
<path fill="none" stroke="black" d="M65.7282,-122.423C92.8649,-131.208 146.171,-131.205 173.294,-122.416"/>
</g>
<!-- b6b&#45;&#45;i6b -->
<g id="edge18" class="edge"><title>b6b&#45;&#45;i6b</title>
<path fill="none" stroke="black" d="M57.3979,-125.824C82.4168,-148.032 156.275,-148.072 181.468,-125.943"/>
</g>
<!-- a4a -->
<g id="node6" class="node"><title>a4a</title>
<ellipse fill="none" stroke="black" cx="336" cy="-108.76" rx="27" ry="18"/>
<text text-anchor="middle" x="336" y="-105.06" font-family="Times,serif" font-size="14.00">4h</text>
</g>
<!-- i6b&#45;&#45;a4a -->
<g id="edge19" class="edge"><title>i6b&#45;&#45;a4a</title>
<path fill="none" stroke="black" d="M208.966,-95.0963C236.487,-86.312 290.549,-86.3143 318.057,-95.1033"/>
</g>
<!-- i6b&#45;&#45;a4a -->
<g id="edge20" class="edge"><title>i6b&#45;&#45;a4a</title>
<path fill="none" stroke="black" d="M216.909,-103.493C242.995,-101.52 283.738,-101.515 309.897,-103.478"/>
</g>
<!-- i6b&#45;&#45;a4a -->
<g id="edge21" class="edge"><title>i6b&#45;&#45;a4a</title>
<path fill="none" stroke="black" d="M216.909,-114.027C242.995,-115.999 283.738,-116.004 309.897,-114.041"/>
</g>
<!-- i6b&#45;&#45;a4a -->
<g id="edge22" class="edge"><title>i6b&#45;&#45;a4a</title>
<path fill="none" stroke="black" d="M208.966,-122.423C236.487,-131.208 290.549,-131.205 318.057,-122.416"/>
</g>
<!-- b4 -->
<g id="node7" class="node"><title>b4</title>
<ellipse fill="none" stroke="black" cx="48" cy="-183.76" rx="27" ry="18"/>
<text text-anchor="middle" x="48" y="-180.06" font-family="Times,serif" font-size="14.00">4h</text>
</g>
<!-- i4a -->
<g id="node8" class="node"><title>i4a</title>
<ellipse fill="none" stroke="black" cx="191" cy="-183.76" rx="27" ry="18"/>
<text text-anchor="middle" x="191" y="-180.06" font-family="Times,serif" font-size="14.00">4h</text>
</g>
<!-- b4&#45;&#45;i4a -->
<g id="edge23" class="edge"><title>b4&#45;&#45;i4a</title>
<path fill="none" stroke="black" d="M65.7282,-170.096C92.8649,-161.312 146.171,-161.314 173.294,-170.103"/>
</g>
<!-- b4&#45;&#45;i4a -->
<g id="edge25" class="edge"><title>b4&#45;&#45;i4a</title>
<path fill="none" stroke="black" d="M73.8834,-178.468C99.4986,-176.529 139.194,-176.524 164.891,-178.451"/>
</g>
<!-- b4&#45;&#45;i4a -->
<g id="edge27" class="edge"><title>b4&#45;&#45;i4a</title>
<path fill="none" stroke="black" d="M73.8834,-189.051C99.4986,-190.99 139.194,-190.996 164.891,-189.068"/>
</g>
<!-- b4&#45;&#45;i4a -->
<g id="edge29" class="edge"><title>b4&#45;&#45;i4a</title>
<path fill="none" stroke="black" d="M65.7282,-197.423C92.8649,-206.208 146.171,-206.205 173.294,-197.416"/>
</g>
<!-- a4b -->
<g id="node9" class="node"><title>a4b</title>
<ellipse fill="none" stroke="black" cx="336" cy="-183.76" rx="27" ry="18"/>
<text text-anchor="middle" x="336" y="-180.06" font-family="Times,serif" font-size="14.00">4h</text>
</g>
<!-- i4a&#45;&#45;a4b -->
<g id="edge24" class="edge"><title>i4a&#45;&#45;a4b</title>
<path fill="none" stroke="black" d="M208.966,-170.096C236.487,-161.312 290.549,-161.314 318.057,-170.103"/>
</g>
<!-- i4a&#45;&#45;a4b -->
<g id="edge26" class="edge"><title>i4a&#45;&#45;a4b</title>
<path fill="none" stroke="black" d="M216.909,-178.493C242.995,-176.52 283.738,-176.515 309.897,-178.478"/>
</g>
<!-- i4a&#45;&#45;a4b -->
<g id="edge28" class="edge"><title>i4a&#45;&#45;a4b</title>
<path fill="none" stroke="black" d="M216.909,-189.027C242.995,-190.999 283.738,-191.004 309.897,-189.041"/>
</g>
<!-- i4a&#45;&#45;a4b -->
<g id="edge30" class="edge"><title>i4a&#45;&#45;a4b</title>
<path fill="none" stroke="black" d="M208.966,-197.423C236.487,-206.208 290.549,-206.205 318.057,-197.416"/>
</g>
<!-- b5 -->
<g id="node10" class="node"><title>b5</title>
<ellipse fill="none" stroke="black" cx="48" cy="-333.76" rx="27" ry="18"/>
<text text-anchor="middle" x="48" y="-330.06" font-family="Times,serif" font-size="14.00">5h</text>
</g>
<!-- i4b -->
<g id="node11" class="node"><title>i4b</title>
<ellipse fill="none" stroke="black" cx="191" cy="-333.76" rx="27" ry="18"/>
<text text-anchor="middle" x="191" y="-330.06" font-family="Times,serif" font-size="14.00">4h</text>
</g>
<!-- b5&#45;&#45;i4b -->
<g id="edge31" class="edge"><title>b5&#45;&#45;i4b</title>
<path fill="none" stroke="black" d="M65.7282,-320.096C92.8649,-311.312 146.171,-311.314 173.294,-320.103"/>
</g>
<!-- b5&#45;&#45;i4b -->
<g id="edge32" class="edge"><title>b5&#45;&#45;i4b</title>
<path fill="none" stroke="black" d="M73.8834,-328.468C99.4986,-326.529 139.194,-326.524 164.891,-328.451"/>
</g>
<!-- b5&#45;&#45;i4b -->
<g id="edge33" class="edge"><title>b5&#45;&#45;i4b</title>
<path fill="none" stroke="black" d="M73.8834,-339.051C99.4986,-340.99 139.194,-340.996 164.891,-339.068"/>
</g>
<!-- b5&#45;&#45;i4b -->
<g id="edge34" class="edge"><title>b5&#45;&#45;i4b</title>
<path fill="none" stroke="black" d="M65.7282,-347.423C92.8649,-356.208 146.171,-356.205 173.294,-347.416"/>
</g>
<!-- i3 -->
<g id="node14" class="node"><title>i3</title>
<ellipse fill="none" stroke="black" cx="191" cy="-258.76" rx="27" ry="18"/>
<text text-anchor="middle" x="191" y="-255.06" font-family="Times,serif" font-size="14.00">3h</text>
</g>
<!-- b5&#45;&#45;i3 -->
<g id="edge41" class="edge"><title>b5&#45;&#45;i3</title>
<path fill="none" stroke="black" d="M69.5026,-322.854C96.2352,-308.635 142.728,-283.905 169.473,-269.679"/>
</g>
<!-- a4c -->
<g id="node12" class="node"><title>a4c</title>
<ellipse fill="none" stroke="black" cx="336" cy="-333.76" rx="27" ry="18"/>
<text text-anchor="middle" x="336" y="-330.06" font-family="Times,serif" font-size="14.00">4h</text>
</g>
<!-- i4b&#45;&#45;a4c -->
<g id="edge35" class="edge"><title>i4b&#45;&#45;a4c</title>
<path fill="none" stroke="black" d="M208.966,-320.096C236.487,-311.312 290.549,-311.314 318.057,-320.103"/>
</g>
<!-- i4b&#45;&#45;a4c -->
<g id="edge36" class="edge"><title>i4b&#45;&#45;a4c</title>
<path fill="none" stroke="black" d="M216.909,-328.493C242.995,-326.52 283.738,-326.515 309.897,-328.478"/>
</g>
<!-- i4b&#45;&#45;a4c -->
<g id="edge37" class="edge"><title>i4b&#45;&#45;a4c</title>
<path fill="none" stroke="black" d="M216.909,-339.027C242.995,-340.999 283.738,-341.004 309.897,-339.041"/>
</g>
<!-- i4b&#45;&#45;a4c -->
<g id="edge38" class="edge"><title>i4b&#45;&#45;a4c</title>
<path fill="none" stroke="black" d="M208.966,-347.423C236.487,-356.208 290.549,-356.205 318.057,-347.416"/>
</g>
<!-- b2 -->
<g id="node13" class="node"><title>b2</title>
<ellipse fill="none" stroke="black" cx="48" cy="-258.76" rx="27" ry="18"/>
<text text-anchor="middle" x="48" y="-255.06" font-family="Times,serif" font-size="14.00">2h</text>
</g>
<!-- b2&#45;&#45;i3 -->
<g id="edge39" class="edge"><title>b2&#45;&#45;i3</title>
<path fill="none" stroke="black" d="M73.8834,-253.468C99.4986,-251.529 139.194,-251.524 164.891,-253.451"/>
</g>
<!-- b2&#45;&#45;i3 -->
<g id="edge40" class="edge"><title>b2&#45;&#45;i3</title>
<path fill="none" stroke="black" d="M73.8834,-264.051C99.4986,-265.99 139.194,-265.996 164.891,-264.068"/>
</g>
<!-- beginner -->
<g id="node15" class="node"><title>beginner</title>
<text text-anchor="middle" x="48" y="-405.06" font-family="Times,serif" font-size="14.00">Beginner track</text>
</g>
<!-- intermediate -->
<g id="node16" class="node"><title>intermediate</title>
<text text-anchor="middle" x="191" y="-405.06" font-family="Times,serif" font-size="14.00">Intermediate track</text>
</g>
<!-- beginner&#45;&#45;intermediate -->
<g id="edge42" class="edge"><title>beginner&#45;&#45;intermediate</title>
<path fill="none" stroke="black" d="M96.7362,-408.76C108.241,-408.76 120.651,-408.76 132.548,-408.76"/>
</g>
<!-- advanced -->
<g id="node17" class="node"><title>advanced</title>
<text text-anchor="middle" x="336" y="-405.06" font-family="Times,serif" font-size="14.00">Advanced track</text>
</g>
<!-- intermediate&#45;&#45;advanced -->
<g id="edge43" class="edge"><title>intermediate&#45;&#45;advanced</title>
<path fill="none" stroke="black" d="M249.34,-408.76C260.995,-408.76 273.173,-408.76 284.568,-408.76"/>
</g>
</g>
</svg>
