<?xml version="1.0" encoding="UTF-8" standalone="no"?>
<!DOCTYPE svg PUBLIC "-//W3C//DTD SVG 1.1//EN"
 "http://www.w3.org/Graphics/SVG/1.1/DTD/svg11.dtd">
<!-- Generated by graphviz version 2.38.0 (20140413.2041)
 -->
<!-- Title: scheduleClashes Pages: 1 -->
<svg width="583pt" height="896pt"
 viewBox="0.00 0.00 582.67 896.08" xmlns="http://www.w3.org/2000/svg" xmlns:xlink="http://www.w3.org/1999/xlink">
<g id="graph0" class="graph" transform="scale(1 1) rotate(0) translate(4 892.083)">
<title>scheduleClashes</title>
<polygon fill="white" stroke="none" points="-4,4 -4,-892.083 578.666,-892.083 578.666,4 -4,4"/>
<!-- Julie -->
<g id="node1" class="node"><title>Julie</title>
<ellipse fill="none" stroke="black" cx="89.0955" cy="-682.083" rx="56.6372" ry="37.4533"/>
<text text-anchor="middle" x="89.0955" y="-693.383" font-family="Times,serif" font-size="14.00">Julie</text>
<text text-anchor="middle" x="89.0955" y="-678.383" font-family="Times,serif" font-size="14.00">Profunctors</text>
<text text-anchor="middle" x="89.0955" y="-663.383" font-family="Times,serif" font-size="14.00">6x</text>
</g>
<!-- Carter -->
<g id="node2" class="node"><title>Carter</title>
<ellipse fill="none" stroke="black" cx="471.428" cy="-682.083" rx="101.233" ry="37.4533"/>
<text text-anchor="middle" x="471.428" y="-693.383" font-family="Times,serif" font-size="14.00">Carter</text>
<text text-anchor="middle" x="471.428" y="-678.383" font-family="Times,serif" font-size="14.00">Linear dependant types</text>
<text text-anchor="middle" x="471.428" y="-663.383" font-family="Times,serif" font-size="14.00">4x</text>
</g>
<!-- Julie&#45;&#45;Carter -->
<g id="edge1" class="edge"><title>Julie&#45;&#45;Carter</title>
<path fill="none" stroke="black" d="M141.389,-667.718C202.927,-661.078 307.127,-660.057 381.788,-664.654"/>
</g>
<!-- Julie&#45;&#45;Carter -->
<g id="edge2" class="edge"><title>Julie&#45;&#45;Carter</title>
<path fill="none" stroke="black" d="M145.399,-677.155C204.528,-675.164 299.496,-674.805 371.546,-676.078"/>
</g>
<!-- Julie&#45;&#45;Carter -->
<g id="edge11" class="edge"><title>Julie&#45;&#45;Carter</title>
<path fill="none" stroke="black" d="M145.399,-687.011C204.528,-689.003 299.496,-689.362 371.546,-688.088"/>
</g>
<!-- Julie&#45;&#45;Carter -->
<g id="edge12" class="edge"><title>Julie&#45;&#45;Carter</title>
<path fill="none" stroke="black" d="M141.389,-696.449C202.927,-703.088 307.127,-704.109 381.788,-699.512"/>
</g>
<!-- Jakub -->
<g id="node10" class="node"><title>Jakub</title>
<ellipse fill="none" stroke="black" cx="471.428" cy="-578.083" rx="82.9636" ry="48.1667"/>
<text text-anchor="middle" x="471.428" y="-596.883" font-family="Times,serif" font-size="14.00">Jakub</text>
<text text-anchor="middle" x="471.428" y="-581.883" font-family="Times,serif" font-size="14.00">Serverless Haskell</text>
<text text-anchor="middle" x="471.428" y="-566.883" font-family="Times,serif" font-size="14.00">on Azure</text>
<text text-anchor="middle" x="471.428" y="-551.883" font-family="Times,serif" font-size="14.00">4x</text>
</g>
<!-- Julie&#45;&#45;Jakub -->
<g id="edge21" class="edge"><title>Julie&#45;&#45;Jakub</title>
<path fill="none" stroke="black" d="M139.039,-663.998C203.34,-644.009 316.993,-612.645 393.016,-593.692"/>
</g>
<!-- Julie&#45;&#45;Jakub -->
<g id="edge22" class="edge"><title>Julie&#45;&#45;Jakub</title>
<path fill="none" stroke="black" d="M143.781,-672.276C210.944,-656.233 326.11,-624.909 400.212,-602.66"/>
</g>
<!-- MarcinS -->
<g id="node3" class="node"><title>MarcinS</title>
<ellipse fill="none" stroke="black" cx="89.0955" cy="-257.083" rx="77.1494" ry="37.4533"/>
<text text-anchor="middle" x="89.0955" y="-268.383" font-family="Times,serif" font-size="14.00">Marcin S</text>
<text text-anchor="middle" x="89.0955" y="-253.383" font-family="Times,serif" font-size="14.00">Category Theory</text>
<text text-anchor="middle" x="89.0955" y="-238.383" font-family="Times,serif" font-size="14.00">4x</text>
</g>
<!-- Laurens -->
<g id="node4" class="node"><title>Laurens</title>
<ellipse fill="none" stroke="black" cx="471.428" cy="-360.083" rx="42.3529" ry="37.4533"/>
<text text-anchor="middle" x="471.428" y="-371.383" font-family="Times,serif" font-size="14.00">Laurens</text>
<text text-anchor="middle" x="471.428" y="-356.383" font-family="Times,serif" font-size="14.00">STM</text>
<text text-anchor="middle" x="471.428" y="-341.383" font-family="Times,serif" font-size="14.00">5x</text>
</g>
<!-- MarcinS&#45;&#45;Laurens -->
<g id="edge3" class="edge"><title>MarcinS&#45;&#45;Laurens</title>
<path fill="none" stroke="black" d="M161.187,-270.936C241.384,-290.533 368.857,-325.433 432.16,-345.457"/>
</g>
<!-- MarcinS&#45;&#45;Laurens -->
<g id="edge4" class="edge"><title>MarcinS&#45;&#45;Laurens</title>
<path fill="none" stroke="black" d="M152.049,-279.002C230.352,-302.584 362.941,-338.236 429.596,-353.401"/>
</g>
<!-- Krzysztof -->
<g id="node7" class="node"><title>Krzysztof</title>
<ellipse fill="none" stroke="black" cx="471.428" cy="-256.083" rx="89.191" ry="48.1667"/>
<text text-anchor="middle" x="471.428" y="-274.883" font-family="Times,serif" font-size="14.00">Krzysztof</text>
<text text-anchor="middle" x="471.428" y="-259.883" font-family="Times,serif" font-size="14.00">Intoduction</text>
<text text-anchor="middle" x="471.428" y="-244.883" font-family="Times,serif" font-size="14.00">to Dependant Types</text>
<text text-anchor="middle" x="471.428" y="-229.883" font-family="Times,serif" font-size="14.00">4x</text>
</g>
<!-- MarcinS&#45;&#45;Krzysztof -->
<g id="edge7" class="edge"><title>MarcinS&#45;&#45;Krzysztof</title>
<path fill="none" stroke="black" d="M165.692,-251.369C228.191,-249.657 317.012,-249.331 382.648,-250.522"/>
</g>
<!-- MarcinS&#45;&#45;Krzysztof -->
<g id="edge8" class="edge"><title>MarcinS&#45;&#45;Krzysztof</title>
<path fill="none" stroke="black" d="M165.692,-262.4C228.299,-263.786 317.32,-263.642 382.989,-262.098"/>
</g>
<!-- Ryan -->
<g id="node5" class="node"><title>Ryan</title>
<ellipse fill="none" stroke="black" cx="89.0955" cy="-152.083" rx="79.8063" ry="37.4533"/>
<text text-anchor="middle" x="89.0955" y="-163.383" font-family="Times,serif" font-size="14.00">Ryan</text>
<text text-anchor="middle" x="89.0955" y="-148.383" font-family="Times,serif" font-size="14.00">NAND&#45;&gt;Lambda</text>
<text text-anchor="middle" x="89.0955" y="-133.383" font-family="Times,serif" font-size="14.00">5x</text>
</g>
<!-- Ryan&#45;&#45;Laurens -->
<g id="edge5" class="edge"><title>Ryan&#45;&#45;Laurens</title>
<path fill="none" stroke="black" d="M136.551,-182.48C154.814,-193.914 176.169,-206.659 196.191,-217.083 262.397,-251.552 293.724,-235.269 350.191,-284.083 361.667,-294.004 356.817,-303.045 368.191,-313.083 386.206,-328.983 410.512,-340.454 430.904,-348.082"/>
</g>
<!-- Christophe -->
<g id="node6" class="node"><title>Christophe</title>
<ellipse fill="none" stroke="black" cx="471.428" cy="-48.0833" rx="65.1077" ry="48.1667"/>
<text text-anchor="middle" x="471.428" y="-66.8833" font-family="Times,serif" font-size="14.00">Christophe</text>
<text text-anchor="middle" x="471.428" y="-51.8833" font-family="Times,serif" font-size="14.00">Reactive</text>
<text text-anchor="middle" x="471.428" y="-36.8833" font-family="Times,serif" font-size="14.00">programming</text>
<text text-anchor="middle" x="471.428" y="-21.8833" font-family="Times,serif" font-size="14.00">1x</text>
</g>
<!-- Ryan&#45;&#45;Christophe -->
<g id="edge6" class="edge"><title>Ryan&#45;&#45;Christophe</title>
<path fill="none" stroke="black" d="M158.531,-133.37C230.176,-113.779 341.592,-83.313 410.063,-64.59"/>
</g>
<!-- Ryan&#45;&#45;Krzysztof -->
<g id="edge18" class="edge"><title>Ryan&#45;&#45;Krzysztof</title>
<path fill="none" stroke="black" d="M158.531,-170.796C224.081,-188.721 322.922,-215.749 391.706,-234.557"/>
</g>
<!-- MarcinM -->
<g id="node8" class="node"><title>MarcinM</title>
<ellipse fill="none" stroke="black" cx="471.428" cy="-152.083" rx="77.5641" ry="37.4533"/>
<text text-anchor="middle" x="471.428" y="-163.383" font-family="Times,serif" font-size="14.00">Marcin M</text>
<text text-anchor="middle" x="471.428" y="-148.383" font-family="Times,serif" font-size="14.00">Functional optics</text>
<text text-anchor="middle" x="471.428" y="-133.383" font-family="Times,serif" font-size="14.00">4x</text>
</g>
<!-- Ryan&#45;&#45;MarcinM -->
<g id="edge9" class="edge"><title>Ryan&#45;&#45;MarcinM</title>
<path fill="none" stroke="black" d="M168.44,-146.501C234.655,-144.925 328.924,-144.944 394.457,-146.559"/>
</g>
<!-- Ryan&#45;&#45;MarcinM -->
<g id="edge10" class="edge"><title>Ryan&#45;&#45;MarcinM</title>
<path fill="none" stroke="black" d="M168.44,-157.665C234.655,-159.242 328.924,-159.222 394.457,-157.608"/>
</g>
<!-- Filip -->
<g id="node9" class="node"><title>Filip</title>
<ellipse fill="none" stroke="black" cx="89.0955" cy="-489.083" rx="89.191" ry="48.1667"/>
<text text-anchor="middle" x="89.0955" y="-507.883" font-family="Times,serif" font-size="14.00">Filip</text>
<text text-anchor="middle" x="89.0955" y="-492.883" font-family="Times,serif" font-size="14.00">Really</text>
<text text-anchor="middle" x="89.0955" y="-477.883" font-family="Times,serif" font-size="14.00">Real&#45;World Haskell</text>
<text text-anchor="middle" x="89.0955" y="-462.883" font-family="Times,serif" font-size="14.00">5x</text>
</g>
<!-- Filip&#45;&#45;Laurens -->
<g id="edge13" class="edge"><title>Filip&#45;&#45;Laurens</title>
<path fill="none" stroke="black" d="M160.298,-459.896C239.607,-430.87 365.967,-388.353 430.161,-369.39"/>
</g>
<!-- Filip&#45;&#45;Laurens -->
<g id="edge14" class="edge"><title>Filip&#45;&#45;Laurens</title>
<path fill="none" stroke="black" d="M169.363,-467.801C250.349,-442.235 372.583,-400.311 433.374,-376.858"/>
</g>
<!-- Filip&#45;&#45;Jakub -->
<g id="edge15" class="edge"><title>Filip&#45;&#45;Jakub</title>
<path fill="none" stroke="black" d="M150.934,-523.78C165.392,-530.802 181.03,-537.445 196.191,-542.083 259.214,-561.365 333.486,-570.319 388.83,-574.478"/>
</g>
<!-- Piotr -->
<g id="node12" class="node"><title>Piotr</title>
<ellipse fill="none" stroke="black" cx="471.428" cy="-464.083" rx="77.5641" ry="48.1667"/>
<text text-anchor="middle" x="471.428" y="-482.883" font-family="Times,serif" font-size="14.00">Piotr</text>
<text text-anchor="middle" x="471.428" y="-467.883" font-family="Times,serif" font-size="14.00">Neural Networks</text>
<text text-anchor="middle" x="471.428" y="-452.883" font-family="Times,serif" font-size="14.00">as Category</text>
<text text-anchor="middle" x="471.428" y="-437.883" font-family="Times,serif" font-size="14.00">4x</text>
</g>
<!-- Filip&#45;&#45;Piotr -->
<g id="edge29" class="edge"><title>Filip&#45;&#45;Piotr</title>
<path fill="none" stroke="black" d="M175.924,-477.691C241.323,-471.994 330.567,-466.197 393.624,-463.587"/>
</g>
<!-- Filip&#45;&#45;Piotr -->
<g id="edge30" class="edge"><title>Filip&#45;&#45;Piotr</title>
<path fill="none" stroke="black" d="M178.307,-489.086C244.03,-486.123 332.82,-480.188 395.202,-474.534"/>
</g>
<!-- Tom -->
<g id="node11" class="node"><title>Tom</title>
<ellipse fill="none" stroke="black" cx="89.0955" cy="-373.083" rx="40.1111" ry="37.4533"/>
<text text-anchor="middle" x="89.0955" y="-384.383" font-family="Times,serif" font-size="14.00">Tom</text>
<text text-anchor="middle" x="89.0955" y="-369.383" font-family="Times,serif" font-size="14.00">Testing</text>
<text text-anchor="middle" x="89.0955" y="-354.383" font-family="Times,serif" font-size="14.00">6x</text>
</g>
<!-- Tom&#45;&#45;Krzysztof -->
<g id="edge17" class="edge"><title>Tom&#45;&#45;Krzysztof</title>
<path fill="none" stroke="black" d="M129.139,-366.519C180.642,-357.277 273.706,-338.548 350.191,-312.083 368.797,-305.645 388.387,-297.261 406.228,-288.949"/>
</g>
<!-- Tom&#45;&#45;MarcinM -->
<g id="edge25" class="edge"><title>Tom&#45;&#45;MarcinM</title>
<path fill="none" stroke="black" d="M118.989,-347.808C168.721,-310.571 274.223,-240.809 368.191,-190.083 379.966,-183.727 392.76,-177.407 405.184,-171.731"/>
</g>
<!-- Tom&#45;&#45;MarcinM -->
<g id="edge26" class="edge"><title>Tom&#45;&#45;MarcinM</title>
<path fill="none" stroke="black" d="M124.789,-355.195C176.583,-323.388 277.731,-256.916 368.191,-208.083 385.467,-198.757 404.936,-189.51 422.212,-181.172"/>
</g>
<!-- Tom&#45;&#45;Jakub -->
<g id="edge16" class="edge"><title>Tom&#45;&#45;Jakub</title>
<path fill="none" stroke="black" d="M122.049,-394.828C142.827,-408.65 170.701,-426.602 196.191,-441.083 266.529,-481.043 350.02,-521.848 406.248,-548.408"/>
</g>
<!-- Tom&#45;&#45;Piotr -->
<g id="edge19" class="edge"><title>Tom&#45;&#45;Piotr</title>
<path fill="none" stroke="black" d="M129.365,-378.172C193.705,-390.695 322.363,-421.138 401.962,-442.373"/>
</g>
<!-- Tom&#45;&#45;Piotr -->
<g id="edge20" class="edge"><title>Tom&#45;&#45;Piotr</title>
<path fill="none" stroke="black" d="M126.909,-386.086C188.895,-403.822 315.247,-434.481 396.223,-451.809"/>
</g>
<!-- Chris -->
<g id="node13" class="node"><title>Chris</title>
<ellipse fill="none" stroke="black" cx="89.0955" cy="-786.083" rx="84.2917" ry="48.1667"/>
<text text-anchor="middle" x="89.0955" y="-804.883" font-family="Times,serif" font-size="14.00">Chris</text>
<text text-anchor="middle" x="89.0955" y="-789.883" font-family="Times,serif" font-size="14.00">Deploying Haskell</text>
<text text-anchor="middle" x="89.0955" y="-774.883" font-family="Times,serif" font-size="14.00">to the Cloud</text>
<text text-anchor="middle" x="89.0955" y="-759.883" font-family="Times,serif" font-size="14.00">4x</text>
</g>
<!-- Michał -->
<g id="node14" class="node"><title>Michał</title>
<ellipse fill="none" stroke="black" cx="471.428" cy="-786.083" rx="103.476" ry="48.1667"/>
<text text-anchor="middle" x="471.428" y="-804.883" font-family="Times,serif" font-size="14.00">Michał</text>
<text text-anchor="middle" x="471.428" y="-789.883" font-family="Times,serif" font-size="14.00">Web development with</text>
<text text-anchor="middle" x="471.428" y="-774.883" font-family="Times,serif" font-size="14.00">Servant and ReasonML</text>
<text text-anchor="middle" x="471.428" y="-759.883" font-family="Times,serif" font-size="14.00">4x</text>
</g>
<!-- Chris&#45;&#45;Michał -->
<g id="edge23" class="edge"><title>Chris&#45;&#45;Michał</title>
<path fill="none" stroke="black" d="M168.44,-769.338C228.457,-765.051 311.523,-764.697 375.347,-768.276"/>
</g>
<!-- Chris&#45;&#45;Michał -->
<g id="edge24" class="edge"><title>Chris&#45;&#45;Michał</title>
<path fill="none" stroke="black" d="M173.091,-780.394C230.685,-779.112 307.751,-778.992 368.993,-780.034"/>
</g>
<!-- Chris&#45;&#45;Michał -->
<g id="edge27" class="edge"><title>Chris&#45;&#45;Michał</title>
<path fill="none" stroke="black" d="M173.091,-791.772C230.685,-793.054 307.751,-793.175 368.993,-792.132"/>
</g>
<!-- Chris&#45;&#45;Michał -->
<g id="edge28" class="edge"><title>Chris&#45;&#45;Michał</title>
<path fill="none" stroke="black" d="M168.44,-802.829C228.457,-807.116 311.523,-807.47 375.347,-803.891"/>
</g>
<!-- beginners -->
<g id="node15" class="node"><title>beginners</title>
<text text-anchor="middle" x="89.0955" y="-866.383" font-family="Times,serif" font-size="14.00">Beginners track</text>
</g>
<!-- advanced -->
<g id="node16" class="node"><title>advanced</title>
<text text-anchor="middle" x="471.428" y="-866.383" font-family="Times,serif" font-size="14.00">Advanced track</text>
</g>
<!-- beginners&#45;&#45;advanced -->
<g id="edge31" class="edge"><title>beginners&#45;&#45;advanced</title>
<path fill="none" stroke="black" d="M140.208,-870.083C213.027,-870.083 347.324,-870.083 420.205,-870.083"/>
<text text-anchor="middle" x="273.191" y="-873.883" font-family="Times,serif" font-size="14.00">scheduled concurrently with</text>
</g>
</g>
</svg>
