<?xml version="1.0" encoding="UTF-8" standalone="no"?>
<!DOCTYPE svg PUBLIC "-//W3C//DTD SVG 1.1//EN"
 "http://www.w3.org/Graphics/SVG/1.1/DTD/svg11.dtd">
<!-- Generated by graphviz version 2.40.1 (20161225.0304)
 -->
<!-- Title: scheduleClashes Pages: 1 -->
<svg width="397pt" height="354pt"
 viewBox="0.00 0.00 396.79 354.26" xmlns="http://www.w3.org/2000/svg" xmlns:xlink="http://www.w3.org/1999/xlink">
<g id="graph0" class="graph" transform="scale(1 1) rotate(0) translate(4 350.2593)">
<title>scheduleClashes</title>
<polygon fill="#ffffff" stroke="transparent" points="-4,4 -4,-350.2593 392.7912,-350.2593 392.7912,4 -4,4"/>
<!-- Christophe -->
<g id="node1" class="node">
<title>Christophe</title>
<ellipse fill="none" stroke="#000000" cx="49.3956" cy="-166.2593" rx="49.2915" ry="18"/>
<text text-anchor="middle" x="49.3956" y="-162.5593" font-family="Times,serif" font-size="14.00" fill="#000000">Christophe</text>
</g>
<!-- Alexey -->
<g id="node2" class="node">
<title>Alexey</title>
<ellipse fill="none" stroke="#000000" cx="192.7912" cy="-166.2593" rx="36.2938" ry="18"/>
<text text-anchor="middle" x="192.7912" y="-162.5593" font-family="Times,serif" font-size="14.00" fill="#000000">Alexey</text>
</g>
<!-- Christophe&#45;&#45;Alexey -->
<g id="edge1" class="edge">
<title>Christophe&#45;&#45;Alexey</title>
<path fill="none" stroke="#000000" d="M86.3236,-154.2829C110.3885,-151.9951 141.3489,-152.2838 163.6731,-155.1492"/>
</g>
<!-- Christophe&#45;&#45;Alexey -->
<g id="edge3" class="edge">
<title>Christophe&#45;&#45;Alexey</title>
<path fill="none" stroke="#000000" d="M99.146,-166.2593C117.9127,-166.2593 138.8995,-166.2593 156.2412,-166.2593"/>
</g>
<!-- Christophe&#45;&#45;Alexey -->
<g id="edge5" class="edge">
<title>Christophe&#45;&#45;Alexey</title>
<path fill="none" stroke="#000000" d="M86.3236,-178.2358C110.3885,-180.5236 141.3489,-180.2348 163.6731,-177.3695"/>
</g>
<!-- Laurens -->
<g id="node7" class="node">
<title>Laurens</title>
<ellipse fill="none" stroke="#000000" cx="192.7912" cy="-274.2593" rx="38.9931" ry="18"/>
<text text-anchor="middle" x="192.7912" y="-270.5593" font-family="Times,serif" font-size="14.00" fill="#000000">Laurens</text>
</g>
<!-- Christophe&#45;&#45;Laurens -->
<g id="edge11" class="edge">
<title>Christophe&#45;&#45;Laurens</title>
<path fill="none" stroke="#000000" d="M96.1188,-172.93C97.0341,-173.6901 97.9264,-174.4672 98.7912,-175.2593 120.0624,-194.741 112.9024,-210.4742 134.7912,-229.2593 148.2771,-240.833 167.5619,-248.4864 180.129,-256.9935"/>
</g>
<!-- Christophe&#45;&#45;Laurens -->
<g id="edge13" class="edge">
<title>Christophe&#45;&#45;Laurens</title>
<path fill="none" stroke="#000000" d="M80.7084,-180.389C87.0806,-184.058 93.4579,-188.3747 98.7912,-193.2593 120.0624,-212.741 112.9024,-228.4742 134.7912,-247.2593 142.5456,-253.9142 152.2173,-259.2729 161.4266,-263.4076"/>
</g>
<!-- Christophe&#45;&#45;Laurens -->
<g id="edge15" class="edge">
<title>Christophe&#45;&#45;Laurens</title>
<path fill="none" stroke="#000000" d="M60.1599,-183.9522C70.8475,-192.7915 87.2598,-200.698 98.7912,-211.2593 120.0624,-230.741 112.9024,-246.4742 134.7912,-265.2593 140.607,-270.2505 147.5013,-274.5125 154.4701,-277.7235"/>
</g>
<!-- Zans -->
<g id="node3" class="node">
<title>Zans</title>
<ellipse fill="none" stroke="#000000" cx="337.7912" cy="-74.2593" rx="27.8951" ry="18"/>
<text text-anchor="middle" x="337.7912" y="-70.5593" font-family="Times,serif" font-size="14.00" fill="#000000">Zans</text>
</g>
<!-- Alexey&#45;&#45;Zans -->
<g id="edge2" class="edge">
<title>Alexey&#45;&#45;Zans</title>
<path fill="none" stroke="#000000" d="M204.6021,-148.8258C216.8417,-139.7928 236.1893,-131.7734 250.7912,-121.2593 269.6708,-107.6653 268.266,-97.3323 286.7912,-83.2593 294.1306,-77.6839 302.7815,-72.6287 310.8533,-69.2754"/>
</g>
<!-- Alexey&#45;&#45;Zans -->
<g id="edge4" class="edge">
<title>Alexey&#45;&#45;Zans</title>
<path fill="none" stroke="#000000" d="M222.0022,-155.2365C231.6035,-150.9558 242.0481,-145.5548 250.7912,-139.2593 269.6708,-125.6653 268.266,-115.3323 286.7912,-101.2593 295.3272,-94.7748 305.6373,-88.9941 314.7471,-84.4617"/>
</g>
<!-- Alexey&#45;&#45;Zans -->
<g id="edge6" class="edge">
<title>Alexey&#45;&#45;Zans</title>
<path fill="none" stroke="#000000" d="M228.6355,-169.701C236.2537,-166.4599 244.0311,-162.1269 250.7912,-157.2593 269.6708,-143.6653 268.266,-133.3323 286.7912,-119.2593 300.034,-109.1992 317.5466,-100.8331 328.2234,-91.2864"/>
</g>
<!-- Krzysztof -->
<g id="node12" class="node">
<title>Krzysztof</title>
<ellipse fill="none" stroke="#000000" cx="337.7912" cy="-182.2593" rx="45.4919" ry="18"/>
<text text-anchor="middle" x="337.7912" y="-178.5593" font-family="Times,serif" font-size="14.00" fill="#000000">Krzysztof</text>
</g>
<!-- Alexey&#45;&#45;Krzysztof -->
<g id="edge27" class="edge">
<title>Alexey&#45;&#45;Krzysztof</title>
<path fill="none" stroke="#000000" d="M225.694,-158.3683C250.9281,-158.3426 285.3943,-162.3294 309.4222,-168.1581"/>
</g>
<!-- Alexey&#45;&#45;Krzysztof -->
<g id="edge29" class="edge">
<title>Alexey&#45;&#45;Krzysztof</title>
<path fill="none" stroke="#000000" d="M228.6339,-170.2144C248.3421,-172.3891 272.9546,-175.1049 293.8175,-177.4071"/>
</g>
<!-- Alexey&#45;&#45;Krzysztof -->
<g id="edge31" class="edge">
<title>Alexey&#45;&#45;Krzysztof</title>
<path fill="none" stroke="#000000" d="M217.7176,-179.4939C239.3371,-185.1463 271.0617,-189.2599 296.4727,-190.0227"/>
</g>
<!-- Ryan -->
<g id="node4" class="node">
<title>Ryan</title>
<ellipse fill="none" stroke="#000000" cx="49.3956" cy="-20.2593" rx="29.4969" ry="18"/>
<text text-anchor="middle" x="49.3956" y="-16.5593" font-family="Times,serif" font-size="14.00" fill="#000000">Ryan</text>
</g>
<!-- Ryan&#45;&#45;Zans -->
<g id="edge21" class="edge">
<title>Ryan&#45;&#45;Zans</title>
<path fill="none" stroke="#000000" d="M74.8626,-29.5934C91.6752,-35.4354 114.3025,-42.6942 134.7912,-47.2593 196.5616,-61.0224 270.5748,-68.6996 309.9422,-72.1002"/>
</g>
<!-- Chris -->
<g id="node5" class="node">
<title>Chris</title>
<ellipse fill="none" stroke="#000000" cx="192.7912" cy="-20.2593" rx="29.795" ry="18"/>
<text text-anchor="middle" x="192.7912" y="-16.5593" font-family="Times,serif" font-size="14.00" fill="#000000">Chris</text>
</g>
<!-- Ryan&#45;&#45;Chris -->
<g id="edge7" class="edge">
<title>Ryan&#45;&#45;Chris</title>
<path fill="none" stroke="#000000" d="M67.8485,-6.1524C95.231,2.0003 146.351,2.0382 173.9538,-6.0389"/>
</g>
<!-- Ryan&#45;&#45;Chris -->
<g id="edge9" class="edge">
<title>Ryan&#45;&#45;Chris</title>
<path fill="none" stroke="#000000" d="M77.3841,-14.7783C102.3248,-13.1066 138.6762,-13.0866 163.8903,-14.7183"/>
</g>
<!-- Ryan&#45;&#45;Chris -->
<g id="edge17" class="edge">
<title>Ryan&#45;&#45;Chris</title>
<path fill="none" stroke="#000000" d="M77.3841,-25.7403C102.3248,-27.4121 138.6762,-27.4321 163.8903,-25.8004"/>
</g>
<!-- Ryan&#45;&#45;Chris -->
<g id="edge19" class="edge">
<title>Ryan&#45;&#45;Chris</title>
<path fill="none" stroke="#000000" d="M67.8485,-34.3663C95.231,-42.519 146.351,-42.5568 173.9538,-34.4798"/>
</g>
<!-- Chris&#45;&#45;Zans -->
<g id="edge18" class="edge">
<title>Chris&#45;&#45;Zans</title>
<path fill="none" stroke="#000000" d="M221.4386,-25.4242C249.6652,-34.0897 292.0973,-50.0974 317.1631,-61.6897"/>
</g>
<!-- Chris&#45;&#45;Zans -->
<g id="edge20" class="edge">
<title>Chris&#45;&#45;Zans</title>
<path fill="none" stroke="#000000" d="M213.8755,-33.0395C239.4814,-44.8374 282.7165,-61.0945 310.7503,-69.5843"/>
</g>
<!-- Edward -->
<g id="node6" class="node">
<title>Edward</title>
<ellipse fill="none" stroke="#000000" cx="337.7912" cy="-20.2593" rx="38.1938" ry="18"/>
<text text-anchor="middle" x="337.7912" y="-16.5593" font-family="Times,serif" font-size="14.00" fill="#000000">Edward</text>
</g>
<!-- Chris&#45;&#45;Edward -->
<g id="edge8" class="edge">
<title>Chris&#45;&#45;Edward</title>
<path fill="none" stroke="#000000" d="M221.4386,-14.7556C244.383,-13.2546 276.7138,-13.1094 301.4735,-14.3202"/>
</g>
<!-- Chris&#45;&#45;Edward -->
<g id="edge10" class="edge">
<title>Chris&#45;&#45;Edward</title>
<path fill="none" stroke="#000000" d="M221.4386,-25.7631C244.383,-27.2641 276.7138,-27.4092 301.4735,-26.1985"/>
</g>
<!-- Paul -->
<g id="node8" class="node">
<title>Paul</title>
<ellipse fill="none" stroke="#000000" cx="337.7912" cy="-128.2593" rx="27" ry="18"/>
<text text-anchor="middle" x="337.7912" y="-124.5593" font-family="Times,serif" font-size="14.00" fill="#000000">Paul</text>
</g>
<!-- Laurens&#45;&#45;Paul -->
<g id="edge12" class="edge">
<title>Laurens&#45;&#45;Paul</title>
<path fill="none" stroke="#000000" d="M216.4919,-259.7762C228.13,-254.6233 241.5906,-248.0557 250.7912,-238.2593 280.8504,-206.2539 257.5614,-179.0239 286.7912,-146.2593 293.2605,-139.0077 302.1493,-133.3751 310.6954,-129.6653"/>
</g>
<!-- Laurens&#45;&#45;Paul -->
<g id="edge14" class="edge">
<title>Laurens&#45;&#45;Paul</title>
<path fill="none" stroke="#000000" d="M231.1234,-270.2992C238.3334,-266.7746 245.3165,-262.0886 250.7912,-256.2593 280.8504,-224.2539 257.5614,-197.0239 286.7912,-164.2593 295.5948,-154.3912 308.879,-147.5211 319.6826,-141.9471"/>
</g>
<!-- Marcin -->
<g id="node9" class="node">
<title>Marcin</title>
<ellipse fill="none" stroke="#000000" cx="192.7912" cy="-220.2593" rx="36.2938" ry="18"/>
<text text-anchor="middle" x="192.7912" y="-216.5593" font-family="Times,serif" font-size="14.00" fill="#000000">Marcin</text>
</g>
<!-- Laurens&#45;&#45;Marcin -->
<g id="edge16" class="edge">
<title>Laurens&#45;&#45;Marcin</title>
<path fill="none" stroke="#000000" d="M214.7141,-259.2399C221.9563,-251.1683 221.8796,-243.0966 214.484,-235.025"/>
</g>
<!-- Laurens&#45;&#45;Marcin -->
<g id="edge33" class="edge">
<title>Laurens&#45;&#45;Marcin</title>
<path fill="none" stroke="#000000" d="M192.7912,-256.0495C192.7912,-250.1663 192.7912,-244.2831 192.7912,-238.4"/>
</g>
<!-- Laurens&#45;&#45;Marcin -->
<g id="edge35" class="edge">
<title>Laurens&#45;&#45;Marcin</title>
<path fill="none" stroke="#000000" d="M170.8683,-259.2399C163.6262,-251.1683 163.7029,-243.0966 171.0985,-235.025"/>
</g>
<!-- Laurens&#45;&#45;Krzysztof -->
<g id="edge37" class="edge">
<title>Laurens&#45;&#45;Krzysztof</title>
<path fill="none" stroke="#000000" d="M222.0103,-262.0772C231.4114,-257.786 241.7338,-252.6723 250.7912,-247.2593 275.2295,-232.6544 301.1069,-212.6642 318.2233,-198.723"/>
</g>
<!-- Tom -->
<g id="node10" class="node">
<title>Tom</title>
<ellipse fill="none" stroke="#000000" cx="49.3956" cy="-112.2593" rx="27.8951" ry="18"/>
<text text-anchor="middle" x="49.3956" y="-108.5593" font-family="Times,serif" font-size="14.00" fill="#000000">Tom</text>
</g>
<!-- Tom&#45;&#45;Alexey -->
<g id="edge26" class="edge">
<title>Tom&#45;&#45;Alexey</title>
<path fill="none" stroke="#000000" d="M73.7207,-121.4197C98.5712,-130.7779 137.1647,-145.3114 163.6366,-155.2803"/>
</g>
<!-- Arthur -->
<g id="node11" class="node">
<title>Arthur</title>
<ellipse fill="none" stroke="#000000" cx="192.7912" cy="-112.2593" rx="34.394" ry="18"/>
<text text-anchor="middle" x="192.7912" y="-108.5593" font-family="Times,serif" font-size="14.00" fill="#000000">Arthur</text>
</g>
<!-- Tom&#45;&#45;Arthur -->
<g id="edge22" class="edge">
<title>Tom&#45;&#45;Arthur</title>
<path fill="none" stroke="#000000" d="M67.2668,-98.3279C93.9945,-90.1556 144.2399,-89.9107 172.377,-97.5932"/>
</g>
<!-- Tom&#45;&#45;Arthur -->
<g id="edge24" class="edge">
<title>Tom&#45;&#45;Arthur</title>
<path fill="none" stroke="#000000" d="M76.3672,-106.8479C100.1381,-105.1904 134.8299,-105.0722 160.1587,-106.4932"/>
</g>
<!-- Tom&#45;&#45;Arthur -->
<g id="edge38" class="edge">
<title>Tom&#45;&#45;Arthur</title>
<path fill="none" stroke="#000000" d="M76.3672,-117.6708C100.1381,-119.3282 134.8299,-119.4464 160.1587,-118.0254"/>
</g>
<!-- Tom&#45;&#45;Arthur -->
<g id="edge40" class="edge">
<title>Tom&#45;&#45;Arthur</title>
<path fill="none" stroke="#000000" d="M67.2668,-126.1908C93.9945,-134.3631 144.2399,-134.6079 172.377,-126.9255"/>
</g>
<!-- Arthur&#45;&#45;Edward -->
<g id="edge23" class="edge">
<title>Arthur&#45;&#45;Edward</title>
<path fill="none" stroke="#000000" d="M206.7761,-95.5898C224.841,-79.5003 257.4557,-56.0818 286.7912,-38.2593 292.1854,-34.9822 298.0132,-31.6828 303.7347,-28.7048"/>
</g>
<!-- Arthur&#45;&#45;Edward -->
<g id="edge25" class="edge">
<title>Arthur&#45;&#45;Edward</title>
<path fill="none" stroke="#000000" d="M218.9777,-100.471C237.534,-88.5115 263.2211,-70.5791 286.7912,-56.2593 297.7507,-49.601 310.5007,-42.851 320.5109,-36.6406"/>
</g>
<!-- Arthur&#45;&#45;Paul -->
<g id="edge39" class="edge">
<title>Arthur&#45;&#45;Paul</title>
<path fill="none" stroke="#000000" d="M227.1542,-110.2112C253.6183,-111.7371 289.5597,-115.9108 313.1991,-120.3291"/>
</g>
<!-- Arthur&#45;&#45;Paul -->
<g id="edge41" class="edge">
<title>Arthur&#45;&#45;Paul</title>
<path fill="none" stroke="#000000" d="M222.8353,-121.1673C248.7163,-125.6287 285.7423,-129.6492 310.7198,-130.6696"/>
</g>
<!-- Libby -->
<g id="node13" class="node">
<title>Libby</title>
<ellipse fill="none" stroke="#000000" cx="49.3956" cy="-220.2593" rx="31.6951" ry="18"/>
<text text-anchor="middle" x="49.3956" y="-216.5593" font-family="Times,serif" font-size="14.00" fill="#000000">Libby</text>
</g>
<!-- Libby&#45;&#45;Alexey -->
<g id="edge28" class="edge">
<title>Libby&#45;&#45;Alexey</title>
<path fill="none" stroke="#000000" d="M71.1743,-207.0485C94.5222,-196.2507 131.8907,-181.9059 159.0496,-173.1388"/>
</g>
<!-- Libby&#45;&#45;Alexey -->
<g id="edge30" class="edge">
<title>Libby&#45;&#45;Alexey</title>
<path fill="none" stroke="#000000" d="M79.8061,-214.4433C106.6072,-205.9874 145.0842,-191.3308 169.5031,-180.1642"/>
</g>
<!-- Libby&#45;&#45;Laurens -->
<g id="edge32" class="edge">
<title>Libby&#45;&#45;Laurens</title>
<path fill="none" stroke="#000000" d="M79.8061,-226.0754C106.2784,-234.4275 144.1417,-248.8292 168.5979,-259.9418"/>
</g>
<!-- Libby&#45;&#45;Laurens -->
<g id="edge34" class="edge">
<title>Libby&#45;&#45;Laurens</title>
<path fill="none" stroke="#000000" d="M71.1743,-233.4701C93.9738,-244.0143 130.1429,-257.9408 157.1191,-266.753"/>
</g>
<!-- Justin -->
<g id="node14" class="node">
<title>Justin</title>
<ellipse fill="none" stroke="#000000" cx="49.3956" cy="-274.2593" rx="31.3957" ry="18"/>
<text text-anchor="middle" x="49.3956" y="-270.5593" font-family="Times,serif" font-size="14.00" fill="#000000">Justin</text>
</g>
<!-- Justin&#45;&#45;Laurens -->
<g id="edge36" class="edge">
<title>Justin&#45;&#45;Laurens</title>
<path fill="none" stroke="#000000" d="M80.8644,-274.2593C102.2996,-274.2593 130.8276,-274.2593 153.7173,-274.2593"/>
</g>
<!-- beginner -->
<g id="node15" class="node">
<title>beginner</title>
<text text-anchor="middle" x="49.3956" y="-324.5593" font-family="Times,serif" font-size="14.00" fill="#000000">Beginner track</text>
</g>
<!-- intermediate -->
<g id="node16" class="node">
<title>intermediate</title>
<text text-anchor="middle" x="192.7912" y="-324.5593" font-family="Times,serif" font-size="14.00" fill="#000000">Intermediate track</text>
</g>
<!-- beginner&#45;&#45;intermediate -->
<g id="edge42" class="edge">
<title>beginner&#45;&#45;intermediate</title>
<path fill="none" stroke="#000000" d="M97.9428,-328.2593C109.7241,-328.2593 122.4397,-328.2593 134.6153,-328.2593"/>
</g>
<!-- advanced -->
<g id="node17" class="node">
<title>advanced</title>
<text text-anchor="middle" x="337.7912" y="-324.5593" font-family="Times,serif" font-size="14.00" fill="#000000">Advanced track</text>
</g>
<!-- intermediate&#45;&#45;advanced -->
<g id="edge43" class="edge">
<title>intermediate&#45;&#45;advanced</title>
<path fill="none" stroke="#000000" d="M250.9328,-328.2593C262.7512,-328.2593 275.0999,-328.2593 286.6537,-328.2593"/>
</g>
</g>
</svg>
