<?xml version="1.0" encoding="UTF-8" standalone="no"?>
<!DOCTYPE svg PUBLIC "-//W3C//DTD SVG 1.1//EN"
 "http://www.w3.org/Graphics/SVG/1.1/DTD/svg11.dtd">
<!-- Generated by graphviz version 2.38.0 (20140413.2041)
 -->
<!-- Title: scheduleClashes Pages: 1 -->
<svg width="429pt" height="842pt"
 viewBox="0.00 0.00 428.67 842.17" xmlns="http://www.w3.org/2000/svg" xmlns:xlink="http://www.w3.org/1999/xlink">
<g id="graph0" class="graph" transform="scale(1 1) rotate(0) translate(4 838.167)">
<title>scheduleClashes</title>
<polygon fill="white" stroke="none" points="-4,4 -4,-838.167 424.666,-838.167 424.666,4 -4,4"/>
<!-- Julie -->
<g id="node1" class="node"><title>Julie</title>
<ellipse fill="none" stroke="black" cx="89.0955" cy="-682.083" rx="56.6372" ry="37.4533"/>
<text text-anchor="middle" x="89.0955" y="-693.383" font-family="Times,serif" font-size="14.00">Julie</text>
<text text-anchor="middle" x="89.0955" y="-678.383" font-family="Times,serif" font-size="14.00">Profunctors</text>
<text text-anchor="middle" x="89.0955" y="-663.383" font-family="Times,serif" font-size="14.00">6x</text>
</g>
<!-- Carter -->
<g id="node2" class="node"><title>Carter</title>
<ellipse fill="none" stroke="black" cx="317.428" cy="-682.083" rx="101.233" ry="37.4533"/>
<text text-anchor="middle" x="317.428" y="-693.383" font-family="Times,serif" font-size="14.00">Carter</text>
<text text-anchor="middle" x="317.428" y="-678.383" font-family="Times,serif" font-size="14.00">Linear dependant types</text>
<text text-anchor="middle" x="317.428" y="-663.383" font-family="Times,serif" font-size="14.00">4x</text>
</g>
<!-- Julie&#45;&#45;Carter -->
<g id="edge1" class="edge"><title>Julie&#45;&#45;Carter</title>
<path fill="none" stroke="black" d="M139.486,-665.017C166.28,-662.009 200.157,-661.133 231.08,-662.387"/>
</g>
<!-- Julie&#45;&#45;Carter -->
<g id="edge2" class="edge"><title>Julie&#45;&#45;Carter</title>
<path fill="none" stroke="black" d="M145.173,-676.196C167.025,-675.483 192.842,-675.212 217.712,-675.382"/>
</g>
<!-- Julie&#45;&#45;Carter -->
<g id="edge11" class="edge"><title>Julie&#45;&#45;Carter</title>
<path fill="none" stroke="black" d="M145.173,-687.971C167.025,-688.683 192.842,-688.954 217.712,-688.784"/>
</g>
<!-- Julie&#45;&#45;Carter -->
<g id="edge12" class="edge"><title>Julie&#45;&#45;Carter</title>
<path fill="none" stroke="black" d="M139.486,-699.15C166.28,-702.157 200.157,-703.034 231.08,-701.779"/>
</g>
<!-- Jakub -->
<g id="node10" class="node"><title>Jakub</title>
<ellipse fill="none" stroke="black" cx="317.428" cy="-578.083" rx="82.9636" ry="48.1667"/>
<text text-anchor="middle" x="317.428" y="-596.883" font-family="Times,serif" font-size="14.00">Jakub</text>
<text text-anchor="middle" x="317.428" y="-581.883" font-family="Times,serif" font-size="14.00">Serverless Haskell</text>
<text text-anchor="middle" x="317.428" y="-566.883" font-family="Times,serif" font-size="14.00">on Azure</text>
<text text-anchor="middle" x="317.428" y="-551.883" font-family="Times,serif" font-size="14.00">4x</text>
</g>
<!-- Julie&#45;&#45;Jakub -->
<g id="edge21" class="edge"><title>Julie&#45;&#45;Jakub</title>
<path fill="none" stroke="black" d="M131.872,-657.511C164.06,-641.27 209.272,-620.193 246.889,-603.754"/>
</g>
<!-- Julie&#45;&#45;Jakub -->
<g id="edge22" class="edge"><title>Julie&#45;&#45;Jakub</title>
<path fill="none" stroke="black" d="M139.765,-664.959C174.379,-650.341 220.71,-629.157 257.242,-611.295"/>
</g>
<!-- MarcinS -->
<g id="node3" class="node"><title>MarcinS</title>
<ellipse fill="none" stroke="black" cx="89.0955" cy="-259.083" rx="77.1494" ry="37.4533"/>
<text text-anchor="middle" x="89.0955" y="-270.383" font-family="Times,serif" font-size="14.00">Marcin S</text>
<text text-anchor="middle" x="89.0955" y="-255.383" font-family="Times,serif" font-size="14.00">Category Theory</text>
<text text-anchor="middle" x="89.0955" y="-240.383" font-family="Times,serif" font-size="14.00">6x</text>
</g>
<!-- Laurens -->
<g id="node4" class="node"><title>Laurens</title>
<ellipse fill="none" stroke="black" cx="317.428" cy="-360.083" rx="42.3529" ry="37.4533"/>
<text text-anchor="middle" x="317.428" y="-371.383" font-family="Times,serif" font-size="14.00">Laurens</text>
<text text-anchor="middle" x="317.428" y="-356.383" font-family="Times,serif" font-size="14.00">STM</text>
<text text-anchor="middle" x="317.428" y="-341.383" font-family="Times,serif" font-size="14.00">5x</text>
</g>
<!-- MarcinS&#45;&#45;Laurens -->
<g id="edge3" class="edge"><title>MarcinS&#45;&#45;Laurens</title>
<path fill="none" stroke="black" d="M152.241,-280.717C193.988,-298.205 247.45,-322.421 281.823,-339.619"/>
</g>
<!-- MarcinS&#45;&#45;Laurens -->
<g id="edge4" class="edge"><title>MarcinS&#45;&#45;Laurens</title>
<path fill="none" stroke="black" d="M140.326,-287.218C181.61,-307.155 239.279,-332.735 277.218,-347.843"/>
</g>
<!-- Krzysztof -->
<g id="node7" class="node"><title>Krzysztof</title>
<ellipse fill="none" stroke="black" cx="317.428" cy="-256.083" rx="89.191" ry="48.1667"/>
<text text-anchor="middle" x="317.428" y="-274.883" font-family="Times,serif" font-size="14.00">Krzysztof</text>
<text text-anchor="middle" x="317.428" y="-259.883" font-family="Times,serif" font-size="14.00">Intoduction</text>
<text text-anchor="middle" x="317.428" y="-244.883" font-family="Times,serif" font-size="14.00">to Dependant Types</text>
<text text-anchor="middle" x="317.428" y="-229.883" font-family="Times,serif" font-size="14.00">4x</text>
</g>
<!-- MarcinS&#45;&#45;Krzysztof -->
<g id="edge7" class="edge"><title>MarcinS&#45;&#45;Krzysztof</title>
<path fill="none" stroke="black" d="M164.833,-251.701C185.306,-251.034 207.683,-250.669 228.807,-250.65"/>
</g>
<!-- MarcinS&#45;&#45;Krzysztof -->
<g id="edge8" class="edge"><title>MarcinS&#45;&#45;Krzysztof</title>
<path fill="none" stroke="black" d="M165.461,-264.488C185.908,-264.605 208.214,-264.371 229.254,-263.828"/>
</g>
<!-- Ryan -->
<g id="node5" class="node"><title>Ryan</title>
<ellipse fill="none" stroke="black" cx="89.0955" cy="-152.083" rx="79.8063" ry="37.4533"/>
<text text-anchor="middle" x="89.0955" y="-163.383" font-family="Times,serif" font-size="14.00">Ryan</text>
<text text-anchor="middle" x="89.0955" y="-148.383" font-family="Times,serif" font-size="14.00">NAND&#45;&gt;Lambda</text>
<text text-anchor="middle" x="89.0955" y="-133.383" font-family="Times,serif" font-size="14.00">5x</text>
</g>
<!-- Ryan&#45;&#45;Laurens -->
<g id="edge5" class="edge"><title>Ryan&#45;&#45;Laurens</title>
<path fill="none" stroke="black" d="M142.146,-180.276C155.299,-189.353 168.441,-200.399 178.191,-213.083 206.979,-250.534 182.245,-278.287 214.191,-313.083 230.706,-331.071 255.468,-342.698 276.486,-349.888"/>
</g>
<!-- Christophe -->
<g id="node6" class="node"><title>Christophe</title>
<ellipse fill="none" stroke="black" cx="317.428" cy="-48.0833" rx="65.1077" ry="48.1667"/>
<text text-anchor="middle" x="317.428" y="-66.8833" font-family="Times,serif" font-size="14.00">Christophe</text>
<text text-anchor="middle" x="317.428" y="-51.8833" font-family="Times,serif" font-size="14.00">Reactive</text>
<text text-anchor="middle" x="317.428" y="-36.8833" font-family="Times,serif" font-size="14.00">programming</text>
<text text-anchor="middle" x="317.428" y="-21.8833" font-family="Times,serif" font-size="14.00">1x</text>
</g>
<!-- Ryan&#45;&#45;Christophe -->
<g id="edge6" class="edge"><title>Ryan&#45;&#45;Christophe</title>
<path fill="none" stroke="black" d="M146.917,-125.974C182.01,-109.848 226.809,-89.2633 261.538,-73.3054"/>
</g>
<!-- Ryan&#45;&#45;Krzysztof -->
<g id="edge18" class="edge"><title>Ryan&#45;&#45;Krzysztof</title>
<path fill="none" stroke="black" d="M146.917,-178.193C177.951,-192.453 216.575,-210.201 249.113,-225.152"/>
</g>
<!-- MarcinM -->
<g id="node8" class="node"><title>MarcinM</title>
<ellipse fill="none" stroke="black" cx="317.428" cy="-152.083" rx="77.5641" ry="37.4533"/>
<text text-anchor="middle" x="317.428" y="-163.383" font-family="Times,serif" font-size="14.00">Marcin M</text>
<text text-anchor="middle" x="317.428" y="-148.383" font-family="Times,serif" font-size="14.00">Functional optics</text>
<text text-anchor="middle" x="317.428" y="-133.383" font-family="Times,serif" font-size="14.00">4x</text>
</g>
<!-- Ryan&#45;&#45;MarcinM -->
<g id="edge9" class="edge"><title>Ryan&#45;&#45;MarcinM</title>
<path fill="none" stroke="black" d="M167.986,-145.634C191.515,-145.221 217.303,-145.234 240.689,-145.673"/>
</g>
<!-- Ryan&#45;&#45;MarcinM -->
<g id="edge10" class="edge"><title>Ryan&#45;&#45;MarcinM</title>
<path fill="none" stroke="black" d="M167.986,-158.533C191.515,-158.946 217.303,-158.933 240.689,-158.494"/>
</g>
<!-- Filip -->
<g id="node9" class="node"><title>Filip</title>
<ellipse fill="none" stroke="black" cx="89.0955" cy="-464.083" rx="89.191" ry="48.1667"/>
<text text-anchor="middle" x="89.0955" y="-482.883" font-family="Times,serif" font-size="14.00">Filip</text>
<text text-anchor="middle" x="89.0955" y="-467.883" font-family="Times,serif" font-size="14.00">Really</text>
<text text-anchor="middle" x="89.0955" y="-452.883" font-family="Times,serif" font-size="14.00">Real&#45;World Haskell</text>
<text text-anchor="middle" x="89.0955" y="-437.883" font-family="Times,serif" font-size="14.00">5x</text>
</g>
<!-- Filip&#45;&#45;Laurens -->
<g id="edge13" class="edge"><title>Filip&#45;&#45;Laurens</title>
<path fill="none" stroke="black" d="M151.643,-429.72C191.699,-410.202 242.736,-387.028 277.32,-372.802"/>
</g>
<!-- Filip&#45;&#45;Laurens -->
<g id="edge14" class="edge"><title>Filip&#45;&#45;Laurens</title>
<path fill="none" stroke="black" d="M162.954,-436.959C202.886,-419.427 250.519,-397.092 282.013,-380.909"/>
</g>
<!-- Filip&#45;&#45;Jakub -->
<g id="edge15" class="edge"><title>Filip&#45;&#45;Jakub</title>
<path fill="none" stroke="black" d="M154.953,-496.751C186.173,-512.476 223.432,-531.242 254.288,-546.784"/>
</g>
<!-- Piotr -->
<g id="node12" class="node"><title>Piotr</title>
<ellipse fill="none" stroke="black" cx="317.428" cy="-464.083" rx="77.5641" ry="48.1667"/>
<text text-anchor="middle" x="317.428" y="-482.883" font-family="Times,serif" font-size="14.00">Piotr</text>
<text text-anchor="middle" x="317.428" y="-467.883" font-family="Times,serif" font-size="14.00">Neural Networks</text>
<text text-anchor="middle" x="317.428" y="-452.883" font-family="Times,serif" font-size="14.00">as Category</text>
<text text-anchor="middle" x="317.428" y="-437.883" font-family="Times,serif" font-size="14.00">4x</text>
</g>
<!-- Filip&#45;&#45;Piotr -->
<g id="edge29" class="edge"><title>Filip&#45;&#45;Piotr</title>
<path fill="none" stroke="black" d="M177.602,-457.49C198.251,-457.234 220.104,-457.292 240.209,-457.664"/>
</g>
<!-- Filip&#45;&#45;Piotr -->
<g id="edge30" class="edge"><title>Filip&#45;&#45;Piotr</title>
<path fill="none" stroke="black" d="M177.602,-470.677C198.251,-470.933 220.104,-470.875 240.209,-470.503"/>
</g>
<!-- Tom -->
<g id="node11" class="node"><title>Tom</title>
<ellipse fill="none" stroke="black" cx="89.0955" cy="-357.083" rx="40.1111" ry="37.4533"/>
<text text-anchor="middle" x="89.0955" y="-368.383" font-family="Times,serif" font-size="14.00">Tom</text>
<text text-anchor="middle" x="89.0955" y="-353.383" font-family="Times,serif" font-size="14.00">Testing</text>
<text text-anchor="middle" x="89.0955" y="-338.383" font-family="Times,serif" font-size="14.00">6x</text>
</g>
<!-- Tom&#45;&#45;Krzysztof -->
<g id="edge17" class="edge"><title>Tom&#45;&#45;Krzysztof</title>
<path fill="none" stroke="black" d="M125.709,-341.191C158.45,-326.581 207.877,-304.524 248.21,-286.525"/>
</g>
<!-- Tom&#45;&#45;MarcinM -->
<g id="edge25" class="edge"><title>Tom&#45;&#45;MarcinM</title>
<path fill="none" stroke="black" d="M122.958,-336.666C141.484,-326.927 163.741,-313.862 178.191,-296.083 209.572,-257.474 180.877,-227.037 214.191,-190.083 222.889,-180.434 233.968,-172.627 245.602,-166.513"/>
</g>
<!-- Tom&#45;&#45;MarcinM -->
<g id="edge26" class="edge"><title>Tom&#45;&#45;MarcinM</title>
<path fill="none" stroke="black" d="M129.107,-349.744C146.223,-342.036 165.309,-329.932 178.191,-314.083 209.572,-275.474 180.877,-245.037 214.191,-208.083 226.29,-194.662 242.994,-184.803 259.395,-177.261"/>
</g>
<!-- Tom&#45;&#45;Jakub -->
<g id="edge16" class="edge"><title>Tom&#45;&#45;Jakub</title>
<path fill="none" stroke="black" d="M127.029,-370.533C144.731,-378.665 164.918,-390.677 178.191,-407.083 211.61,-448.391 180.615,-479.904 214.191,-521.083 223.758,-532.817 236.415,-542.549 249.554,-550.45"/>
</g>
<!-- Tom&#45;&#45;Piotr -->
<g id="edge19" class="edge"><title>Tom&#45;&#45;Piotr</title>
<path fill="none" stroke="black" d="M127.216,-369.479C163.209,-384.671 218.303,-410.456 259.775,-431.362"/>
</g>
<!-- Tom&#45;&#45;Piotr -->
<g id="edge20" class="edge"><title>Tom&#45;&#45;Piotr</title>
<path fill="none" stroke="black" d="M123.006,-377.57C156.354,-395.223 208.859,-420.466 250.755,-439.227"/>
</g>
<!-- Chris -->
<g id="node13" class="node"><title>Chris</title>
<ellipse fill="none" stroke="black" cx="89.0955" cy="-786.083" rx="84.2917" ry="48.1667"/>
<text text-anchor="middle" x="89.0955" y="-804.883" font-family="Times,serif" font-size="14.00">Chris</text>
<text text-anchor="middle" x="89.0955" y="-789.883" font-family="Times,serif" font-size="14.00">Deploying Haskell</text>
<text text-anchor="middle" x="89.0955" y="-774.883" font-family="Times,serif" font-size="14.00">to the Cloud</text>
<text text-anchor="middle" x="89.0955" y="-759.883" font-family="Times,serif" font-size="14.00">4x</text>
</g>
<!-- Michał -->
<g id="node14" class="node"><title>Michał</title>
<ellipse fill="none" stroke="black" cx="317.428" cy="-786.083" rx="103.476" ry="48.1667"/>
<text text-anchor="middle" x="317.428" y="-804.883" font-family="Times,serif" font-size="14.00">Michał</text>
<text text-anchor="middle" x="317.428" y="-789.883" font-family="Times,serif" font-size="14.00">Web development with</text>
<text text-anchor="middle" x="317.428" y="-774.883" font-family="Times,serif" font-size="14.00">Servant and ReasonML</text>
<text text-anchor="middle" x="317.428" y="-759.883" font-family="Times,serif" font-size="14.00">4x</text>
</g>
<!-- Chris&#45;&#45;Michał -->
<g id="edge23" class="edge"><title>Chris&#45;&#45;Michał</title>
<path fill="none" stroke="black" d="M166.406,-766.82C184.629,-765.811 204.284,-765.576 223.175,-766.115"/>
</g>
<!-- Chris&#45;&#45;Michał -->
<g id="edge24" class="edge"><title>Chris&#45;&#45;Michał</title>
<path fill="none" stroke="black" d="M172.768,-779.556C186.532,-779.35 200.947,-779.287 215.111,-779.366"/>
</g>
<!-- Chris&#45;&#45;Michał -->
<g id="edge27" class="edge"><title>Chris&#45;&#45;Michał</title>
<path fill="none" stroke="black" d="M172.768,-792.611C186.532,-792.816 200.947,-792.879 215.111,-792.8"/>
</g>
<!-- Chris&#45;&#45;Michał -->
<g id="edge28" class="edge"><title>Chris&#45;&#45;Michał</title>
<path fill="none" stroke="black" d="M166.406,-805.347C184.629,-806.356 204.284,-806.591 223.175,-806.052"/>
</g>
</g>
</svg>
