<?xml version="1.0" encoding="UTF-8" standalone="no"?>
<!DOCTYPE svg PUBLIC "-//W3C//DTD SVG 1.1//EN"
 "http://www.w3.org/Graphics/SVG/1.1/DTD/svg11.dtd">
<!-- Generated by graphviz version 2.38.0 (20140413.2041)
 -->
<!-- Title: scheduleClashes Pages: 1 -->
<svg width="1412pt" height="194pt"
 viewBox="0.00 0.00 1412.35 193.91" xmlns="http://www.w3.org/2000/svg" xmlns:xlink="http://www.w3.org/1999/xlink">
<g id="graph0" class="graph" transform="scale(1 1) rotate(0) translate(4 189.907)">
<title>scheduleClashes</title>
<polygon fill="white" stroke="none" points="-4,4 -4,-189.907 1408.35,-189.907 1408.35,4 -4,4"/>
<!-- Julie -->
<g id="node1" class="node"><title>Julie</title>
<ellipse fill="none" stroke="black" cx="101.116" cy="-148.43" rx="56.6372" ry="26.7407"/>
<text text-anchor="middle" x="101.116" y="-152.23" font-family="Times,serif" font-size="14.00">Julie</text>
<text text-anchor="middle" x="101.116" y="-137.23" font-family="Times,serif" font-size="14.00">Profunctors</text>
</g>
<!-- Carter -->
<g id="node2" class="node"><title>Carter</title>
<ellipse fill="none" stroke="black" cx="101.116" cy="-37.4767" rx="101.233" ry="26.7407"/>
<text text-anchor="middle" x="101.116" y="-41.2767" font-family="Times,serif" font-size="14.00">Carter</text>
<text text-anchor="middle" x="101.116" y="-26.2767" font-family="Times,serif" font-size="14.00">Linear dependant types</text>
</g>
<!-- Julie&#45;&#45;Carter -->
<g id="edge1" class="edge"><title>Julie&#45;&#45;Carter</title>
<path fill="none" stroke="black" d="M83.8338,-122.707C79.9536,-105.253 79.8786,-81.9203 83.6088,-64.2388"/>
</g>
<!-- Julie&#45;&#45;Carter -->
<g id="edge2" class="edge"><title>Julie&#45;&#45;Carter</title>
<path fill="none" stroke="black" d="M95.2763,-121.61C94.0674,-104.367 94.0629,-81.7711 95.2629,-64.4893"/>
</g>
<!-- Julie&#45;&#45;Carter -->
<g id="edge11" class="edge"><title>Julie&#45;&#45;Carter</title>
<path fill="none" stroke="black" d="M106.956,-121.61C108.165,-104.367 108.17,-81.7711 106.97,-64.4893"/>
</g>
<!-- Julie&#45;&#45;Carter -->
<g id="edge12" class="edge"><title>Julie&#45;&#45;Carter</title>
<path fill="none" stroke="black" d="M118.399,-122.707C122.279,-105.253 122.354,-81.9203 118.624,-64.2388"/>
</g>
<!-- Jakub -->
<g id="node10" class="node"><title>Jakub</title>
<ellipse fill="none" stroke="black" cx="303.116" cy="-37.4767" rx="82.9636" ry="37.4533"/>
<text text-anchor="middle" x="303.116" y="-48.7767" font-family="Times,serif" font-size="14.00">Jakub</text>
<text text-anchor="middle" x="303.116" y="-33.7767" font-family="Times,serif" font-size="14.00">Serverless Haskell</text>
<text text-anchor="middle" x="303.116" y="-18.7767" font-family="Times,serif" font-size="14.00">on Azure</text>
</g>
<!-- Julie&#45;&#45;Jakub -->
<g id="edge21" class="edge"><title>Julie&#45;&#45;Jakub</title>
<path fill="none" stroke="black" d="M134.606,-126.423C165.268,-109.046 211.083,-84.2529 247.251,-65.4177"/>
</g>
<!-- Julie&#45;&#45;Jakub -->
<g id="edge22" class="edge"><title>Julie&#45;&#45;Jakub</title>
<path fill="none" stroke="black" d="M140.6,-128.948C173.255,-112.252 219.632,-87.3911 254.541,-67.9531"/>
</g>
<!-- MarcinS -->
<g id="node3" class="node"><title>MarcinS</title>
<ellipse fill="none" stroke="black" cx="764.116" cy="-148.43" rx="77.1494" ry="26.7407"/>
<text text-anchor="middle" x="764.116" y="-152.23" font-family="Times,serif" font-size="14.00">Marcin S</text>
<text text-anchor="middle" x="764.116" y="-137.23" font-family="Times,serif" font-size="14.00">Category Theory</text>
</g>
<!-- Laurens -->
<g id="node4" class="node"><title>Laurens</title>
<ellipse fill="none" stroke="black" cx="620.116" cy="-37.4767" rx="42.3529" ry="26.7407"/>
<text text-anchor="middle" x="620.116" y="-41.2767" font-family="Times,serif" font-size="14.00">Laurens</text>
<text text-anchor="middle" x="620.116" y="-26.2767" font-family="Times,serif" font-size="14.00">STM</text>
</g>
<!-- MarcinS&#45;&#45;Laurens -->
<g id="edge3" class="edge"><title>MarcinS&#45;&#45;Laurens</title>
<path fill="none" stroke="black" d="M728.315,-124.59C701.698,-105.62 666.307,-78.8188 643.274,-60.1734"/>
</g>
<!-- MarcinS&#45;&#45;Laurens -->
<g id="edge4" class="edge"><title>MarcinS&#45;&#45;Laurens</title>
<path fill="none" stroke="black" d="M737.54,-122.979C712.67,-103.027 675.803,-75.262 649.941,-57.0855"/>
</g>
<!-- Krzysztof -->
<g id="node7" class="node"><title>Krzysztof</title>
<ellipse fill="none" stroke="black" cx="943.116" cy="-37.4767" rx="89.191" ry="37.4533"/>
<text text-anchor="middle" x="943.116" y="-48.7767" font-family="Times,serif" font-size="14.00">Krzysztof</text>
<text text-anchor="middle" x="943.116" y="-33.7767" font-family="Times,serif" font-size="14.00">Intoduction</text>
<text text-anchor="middle" x="943.116" y="-18.7767" font-family="Times,serif" font-size="14.00">to Dependant Types</text>
</g>
<!-- MarcinS&#45;&#45;Krzysztof -->
<g id="edge7" class="edge"><title>MarcinS&#45;&#45;Krzysztof</title>
<path fill="none" stroke="black" d="M796.859,-124.057C822.767,-107.487 859.346,-85.1437 889.485,-67.4422"/>
</g>
<!-- MarcinS&#45;&#45;Krzysztof -->
<g id="edge8" class="edge"><title>MarcinS&#45;&#45;Krzysztof</title>
<path fill="none" stroke="black" d="M805.436,-125.644C833.027,-109.684 869.226,-87.7838 897.627,-69.9282"/>
</g>
<!-- Ryan -->
<g id="node5" class="node"><title>Ryan</title>
<ellipse fill="none" stroke="black" cx="939.116" cy="-148.43" rx="79.8062" ry="26.7407"/>
<text text-anchor="middle" x="939.116" y="-152.23" font-family="Times,serif" font-size="14.00">Ryan</text>
<text text-anchor="middle" x="939.116" y="-137.23" font-family="Times,serif" font-size="14.00">NAND&#45;&gt;Lambda</text>
</g>
<!-- Ryan&#45;&#45;Laurens -->
<g id="edge5" class="edge"><title>Ryan&#45;&#45;Laurens</title>
<path fill="none" stroke="black" d="M892.609,-126.417C879.094,-120.847 864.182,-115.208 850.116,-110.953 772.443,-87.4597 745.55,-107.275 671.116,-74.9533 662.03,-71.0077 652.959,-65.258 645.041,-59.4854"/>
</g>
<!-- Christophe -->
<g id="node6" class="node"><title>Christophe</title>
<ellipse fill="none" stroke="black" cx="1115.12" cy="-37.4767" rx="65.1077" ry="37.4533"/>
<text text-anchor="middle" x="1115.12" y="-48.7767" font-family="Times,serif" font-size="14.00">Christophe</text>
<text text-anchor="middle" x="1115.12" y="-33.7767" font-family="Times,serif" font-size="14.00">Reactive</text>
<text text-anchor="middle" x="1115.12" y="-18.7767" font-family="Times,serif" font-size="14.00">programming</text>
</g>
<!-- Ryan&#45;&#45;Christophe -->
<g id="edge6" class="edge"><title>Ryan&#45;&#45;Christophe</title>
<path fill="none" stroke="black" d="M976.012,-124.59C1003.83,-107.367 1042.08,-83.6895 1071.43,-65.5205"/>
</g>
<!-- Ryan&#45;&#45;Krzysztof -->
<g id="edge18" class="edge"><title>Ryan&#45;&#45;Krzysztof</title>
<path fill="none" stroke="black" d="M940.074,-121.333C940.583,-107.483 941.216,-90.2373 941.773,-75.0715"/>
</g>
<!-- MarcinM -->
<g id="node8" class="node"><title>MarcinM</title>
<ellipse fill="none" stroke="black" cx="758.116" cy="-37.4767" rx="77.5641" ry="26.7407"/>
<text text-anchor="middle" x="758.116" y="-41.2767" font-family="Times,serif" font-size="14.00">Marcin M</text>
<text text-anchor="middle" x="758.116" y="-26.2767" font-family="Times,serif" font-size="14.00">Functional optics</text>
</g>
<!-- Ryan&#45;&#45;MarcinM -->
<g id="edge9" class="edge"><title>Ryan&#45;&#45;MarcinM</title>
<path fill="none" stroke="black" d="M896.94,-125.382C864.694,-106.914 820.993,-80.629 791.225,-61.8102"/>
</g>
<!-- Ryan&#45;&#45;MarcinM -->
<g id="edge10" class="edge"><title>Ryan&#45;&#45;MarcinM</title>
<path fill="none" stroke="black" d="M905.52,-123.789C875.6,-104.888 831.881,-78.6026 799.761,-60.2203"/>
</g>
<!-- Filip -->
<g id="node9" class="node"><title>Filip</title>
<ellipse fill="none" stroke="black" cx="482.116" cy="-148.43" rx="89.191" ry="37.4533"/>
<text text-anchor="middle" x="482.116" y="-159.73" font-family="Times,serif" font-size="14.00">Filip</text>
<text text-anchor="middle" x="482.116" y="-144.73" font-family="Times,serif" font-size="14.00">Really</text>
<text text-anchor="middle" x="482.116" y="-129.73" font-family="Times,serif" font-size="14.00">Real&#45;World Haskell</text>
</g>
<!-- Filip&#45;&#45;Laurens -->
<g id="edge13" class="edge"><title>Filip&#45;&#45;Laurens</title>
<path fill="none" stroke="black" d="M518.359,-113.851C541.094,-95.2188 569.912,-72.7417 591.15,-57.2074"/>
</g>
<!-- Filip&#45;&#45;Laurens -->
<g id="edge14" class="edge"><title>Filip&#45;&#45;Laurens</title>
<path fill="none" stroke="black" d="M527.832,-116.208C551.231,-98.4757 578.615,-76.696 597.524,-60.7067"/>
</g>
<!-- Filip&#45;&#45;Jakub -->
<g id="edge15" class="edge"><title>Filip&#45;&#45;Jakub</title>
<path fill="none" stroke="black" d="M432.255,-117.08C407.014,-101.717 376.502,-83.1448 351.475,-67.9116"/>
</g>
<!-- Piotr -->
<g id="node12" class="node"><title>Piotr</title>
<ellipse fill="none" stroke="black" cx="482.116" cy="-37.4767" rx="77.5641" ry="37.4533"/>
<text text-anchor="middle" x="482.116" y="-48.7767" font-family="Times,serif" font-size="14.00">Piotr</text>
<text text-anchor="middle" x="482.116" y="-33.7767" font-family="Times,serif" font-size="14.00">Neural Networks</text>
<text text-anchor="middle" x="482.116" y="-18.7767" font-family="Times,serif" font-size="14.00">as Category</text>
</g>
<!-- Filip&#45;&#45;Piotr -->
<g id="edge29" class="edge"><title>Filip&#45;&#45;Piotr</title>
<path fill="none" stroke="black" d="M475.701,-110.847C475.256,-99.3484 475.255,-86.6533 475.697,-75.1485"/>
</g>
<!-- Filip&#45;&#45;Piotr -->
<g id="edge30" class="edge"><title>Filip&#45;&#45;Piotr</title>
<path fill="none" stroke="black" d="M488.532,-110.847C488.977,-99.3484 488.978,-86.6533 488.535,-75.1485"/>
</g>
<!-- Tom -->
<g id="node11" class="node"><title>Tom</title>
<ellipse fill="none" stroke="black" cx="629.116" cy="-148.43" rx="40.1111" ry="26.7407"/>
<text text-anchor="middle" x="629.116" y="-152.23" font-family="Times,serif" font-size="14.00">Tom</text>
<text text-anchor="middle" x="629.116" y="-137.23" font-family="Times,serif" font-size="14.00">Testing</text>
</g>
<!-- Tom&#45;&#45;Krzysztof -->
<g id="edge17" class="edge"><title>Tom&#45;&#45;Krzysztof</title>
<path fill="none" stroke="black" d="M652.992,-126.475C660.597,-120.705 669.328,-114.942 678.116,-110.953 747.254,-79.5695 772.237,-96.2514 845.116,-74.9533 856.269,-71.6942 867.97,-67.7848 879.248,-63.7541"/>
</g>
<!-- Tom&#45;&#45;MarcinM -->
<g id="edge25" class="edge"><title>Tom&#45;&#45;MarcinM</title>
<path fill="none" stroke="black" d="M649.962,-125.119C670.239,-106.691 701.086,-80.6117 724.738,-61.8875"/>
</g>
<!-- Tom&#45;&#45;MarcinM -->
<g id="edge26" class="edge"><title>Tom&#45;&#45;MarcinM</title>
<path fill="none" stroke="black" d="M656.534,-128.7C679.668,-110.691 712.22,-83.3495 734.288,-63.4856"/>
</g>
<!-- Tom&#45;&#45;Jakub -->
<g id="edge16" class="edge"><title>Tom&#45;&#45;Jakub</title>
<path fill="none" stroke="black" d="M605.541,-126.555C597.879,-120.717 589.041,-114.897 580.116,-110.953 503.498,-77.0993 475.506,-98.4909 395.116,-74.9533 384.398,-71.8151 373.192,-67.9189 362.436,-63.852"/>
</g>
<!-- Tom&#45;&#45;Piotr -->
<g id="edge19" class="edge"><title>Tom&#45;&#45;Piotr</title>
<path fill="none" stroke="black" d="M598.516,-130.891C589.534,-124.638 579.889,-117.462 571.116,-110.953 553.442,-97.8395 533.955,-83.4192 517.647,-70.9182"/>
</g>
<!-- Tom&#45;&#45;Piotr -->
<g id="edge20" class="edge"><title>Tom&#45;&#45;Piotr</title>
<path fill="none" stroke="black" d="M608.12,-125.232C601.989,-120.515 595.334,-115.566 589.116,-110.953 569.743,-96.5786 548.19,-80.634 529.446,-67.3682"/>
</g>
<!-- Chris -->
<g id="node13" class="node"><title>Chris</title>
<ellipse fill="none" stroke="black" cx="1301.12" cy="-148.43" rx="84.2917" ry="37.4533"/>
<text text-anchor="middle" x="1301.12" y="-159.73" font-family="Times,serif" font-size="14.00">Chris</text>
<text text-anchor="middle" x="1301.12" y="-144.73" font-family="Times,serif" font-size="14.00">Deploying Haskell</text>
<text text-anchor="middle" x="1301.12" y="-129.73" font-family="Times,serif" font-size="14.00">to the Cloud</text>
</g>
<!-- Michał -->
<g id="node14" class="node"><title>Michał</title>
<ellipse fill="none" stroke="black" cx="1301.12" cy="-37.4767" rx="103.476" ry="37.4533"/>
<text text-anchor="middle" x="1301.12" y="-48.7767" font-family="Times,serif" font-size="14.00">Michał</text>
<text text-anchor="middle" x="1301.12" y="-33.7767" font-family="Times,serif" font-size="14.00">Web development with</text>
<text text-anchor="middle" x="1301.12" y="-18.7767" font-family="Times,serif" font-size="14.00">Servant and ReasonML</text>
</g>
<!-- Chris&#45;&#45;Michał -->
<g id="edge23" class="edge"><title>Chris&#45;&#45;Michał</title>
<path fill="none" stroke="black" d="M1281.98,-111.755C1280.51,-99.8388 1280.5,-86.5552 1281.92,-74.6052"/>
</g>
<!-- Chris&#45;&#45;Michał -->
<g id="edge24" class="edge"><title>Chris&#45;&#45;Michał</title>
<path fill="none" stroke="black" d="M1294.7,-110.847C1294.26,-99.3484 1294.25,-86.6533 1294.7,-75.1485"/>
</g>
<!-- Chris&#45;&#45;Michał -->
<g id="edge27" class="edge"><title>Chris&#45;&#45;Michał</title>
<path fill="none" stroke="black" d="M1307.53,-110.847C1307.98,-99.3484 1307.98,-86.6533 1307.54,-75.1485"/>
</g>
<!-- Chris&#45;&#45;Michał -->
<g id="edge28" class="edge"><title>Chris&#45;&#45;Michał</title>
<path fill="none" stroke="black" d="M1320.25,-111.755C1321.72,-99.8388 1321.74,-86.5552 1320.31,-74.6052"/>
</g>
</g>
</svg>
