<?xml version="1.0" encoding="UTF-8" standalone="no"?>
<!DOCTYPE svg PUBLIC "-//W3C//DTD SVG 1.1//EN"
 "http://www.w3.org/Graphics/SVG/1.1/DTD/svg11.dtd">
<!-- Generated by graphviz version 2.38.0 (20140413.2041)
 -->
<!-- Title: scheduleClashes Pages: 1 -->
<svg width="429pt" height="668pt"
 viewBox="0.00 0.00 428.67 667.95" xmlns="http://www.w3.org/2000/svg" xmlns:xlink="http://www.w3.org/1999/xlink">
<g id="graph0" class="graph" transform="scale(1 1) rotate(0) translate(4 663.953)">
<title>scheduleClashes</title>
<polygon fill="white" stroke="none" points="-4,4 -4,-663.953 424.666,-663.953 424.666,4 -4,4"/>
<!-- Julie -->
<g id="node1" class="node"><title>Julie</title>
<ellipse fill="none" stroke="black" cx="89.0955" cy="-540.477" rx="56.6372" ry="26.7407"/>
<text text-anchor="middle" x="89.0955" y="-544.277" font-family="Times,serif" font-size="14.00">Julie</text>
<text text-anchor="middle" x="89.0955" y="-529.277" font-family="Times,serif" font-size="14.00">Profunctors</text>
</g>
<!-- Carter -->
<g id="node2" class="node"><title>Carter</title>
<ellipse fill="none" stroke="black" cx="317.428" cy="-540.477" rx="101.233" ry="26.7407"/>
<text text-anchor="middle" x="317.428" y="-544.277" font-family="Times,serif" font-size="14.00">Carter</text>
<text text-anchor="middle" x="317.428" y="-529.277" font-family="Times,serif" font-size="14.00">Linear dependant types</text>
</g>
<!-- Julie&#45;&#45;Carter -->
<g id="edge1" class="edge"><title>Julie&#45;&#45;Carter</title>
<path fill="none" stroke="black" d="M134.003,-524.068C165.627,-520.013 208.975,-519.168 245.481,-521.535"/>
</g>
<!-- Julie&#45;&#45;Carter -->
<g id="edge2" class="edge"><title>Julie&#45;&#45;Carter</title>
<path fill="none" stroke="black" d="M144.308,-534.617C166.802,-533.869 193.607,-533.592 219.289,-533.787"/>
</g>
<!-- Julie&#45;&#45;Carter -->
<g id="edge11" class="edge"><title>Julie&#45;&#45;Carter</title>
<path fill="none" stroke="black" d="M144.308,-546.336C166.802,-547.085 193.607,-547.361 219.289,-547.166"/>
</g>
<!-- Julie&#45;&#45;Carter -->
<g id="edge12" class="edge"><title>Julie&#45;&#45;Carter</title>
<path fill="none" stroke="black" d="M134.003,-556.885C165.627,-560.941 208.975,-561.785 245.481,-559.418"/>
</g>
<!-- Jakub -->
<g id="node10" class="node"><title>Jakub</title>
<ellipse fill="none" stroke="black" cx="317.428" cy="-458.477" rx="82.9636" ry="37.4533"/>
<text text-anchor="middle" x="317.428" y="-469.777" font-family="Times,serif" font-size="14.00">Jakub</text>
<text text-anchor="middle" x="317.428" y="-454.777" font-family="Times,serif" font-size="14.00">Serverless Haskell</text>
<text text-anchor="middle" x="317.428" y="-439.777" font-family="Times,serif" font-size="14.00">on Azure</text>
</g>
<!-- Julie&#45;&#45;Jakub -->
<g id="edge21" class="edge"><title>Julie&#45;&#45;Jakub</title>
<path fill="none" stroke="black" d="M128.746,-521.244C160.816,-508.063 207.256,-490.879 245.917,-477.718"/>
</g>
<!-- Julie&#45;&#45;Jakub -->
<g id="edge22" class="edge"><title>Julie&#45;&#45;Jakub</title>
<path fill="none" stroke="black" d="M139.765,-528.181C174.899,-516.757 222.107,-499.743 258.883,-485.291"/>
</g>
<!-- MarcinS -->
<g id="node3" class="node"><title>MarcinS</title>
<ellipse fill="none" stroke="black" cx="89.0955" cy="-203.477" rx="77.1494" ry="26.7407"/>
<text text-anchor="middle" x="89.0955" y="-207.277" font-family="Times,serif" font-size="14.00">Marcin S</text>
<text text-anchor="middle" x="89.0955" y="-192.277" font-family="Times,serif" font-size="14.00">Category Theory</text>
</g>
<!-- Laurens -->
<g id="node4" class="node"><title>Laurens</title>
<ellipse fill="none" stroke="black" cx="317.428" cy="-283.477" rx="42.3529" ry="26.7407"/>
<text text-anchor="middle" x="317.428" y="-287.277" font-family="Times,serif" font-size="14.00">Laurens</text>
<text text-anchor="middle" x="317.428" y="-272.277" font-family="Times,serif" font-size="14.00">STM</text>
</g>
<!-- MarcinS&#45;&#45;Laurens -->
<g id="edge3" class="edge"><title>MarcinS&#45;&#45;Laurens</title>
<path fill="none" stroke="black" d="M154.494,-217.731C173.697,-224.15 194.794,-231.623 214.191,-238.477 238.321,-247.003 265.667,-256.63 286.002,-265.132"/>
</g>
<!-- MarcinS&#45;&#45;Laurens -->
<g id="edge4" class="edge"><title>MarcinS&#45;&#45;Laurens</title>
<path fill="none" stroke="black" d="M131.453,-226.041C155.58,-235.729 186.604,-246.729 214.191,-256.477 234.418,-263.624 256.904,-271.544 275.626,-277.337"/>
</g>
<!-- Krzysztof -->
<g id="node7" class="node"><title>Krzysztof</title>
<ellipse fill="none" stroke="black" cx="317.428" cy="-201.477" rx="89.191" ry="37.4533"/>
<text text-anchor="middle" x="317.428" y="-212.777" font-family="Times,serif" font-size="14.00">Krzysztof</text>
<text text-anchor="middle" x="317.428" y="-197.777" font-family="Times,serif" font-size="14.00">Intoduction</text>
<text text-anchor="middle" x="317.428" y="-182.777" font-family="Times,serif" font-size="14.00">to Dependant Types</text>
</g>
<!-- MarcinS&#45;&#45;Krzysztof -->
<g id="edge7" class="edge"><title>MarcinS&#45;&#45;Krzysztof</title>
<path fill="none" stroke="black" d="M163.579,-196.461C184.49,-195.856 207.47,-195.578 229.117,-195.657"/>
</g>
<!-- MarcinS&#45;&#45;Krzysztof -->
<g id="edge8" class="edge"><title>MarcinS&#45;&#45;Krzysztof</title>
<path fill="none" stroke="black" d="M164.519,-209.204C185.391,-209.428 208.264,-209.291 229.78,-208.825"/>
</g>
<!-- Ryan -->
<g id="node5" class="node"><title>Ryan</title>
<ellipse fill="none" stroke="black" cx="89.0955" cy="-119.477" rx="79.8063" ry="26.7407"/>
<text text-anchor="middle" x="89.0955" y="-123.277" font-family="Times,serif" font-size="14.00">Ryan</text>
<text text-anchor="middle" x="89.0955" y="-108.277" font-family="Times,serif" font-size="14.00">NAND&#45;&gt;Lambda</text>
</g>
<!-- Ryan&#45;&#45;Laurens -->
<g id="edge5" class="edge"><title>Ryan&#45;&#45;Laurens</title>
<path fill="none" stroke="black" d="M141.117,-140.082C154.417,-147.259 167.891,-156.362 178.191,-167.477 204.693,-196.075 185.484,-221.093 214.191,-247.477 231.233,-263.139 255.5,-272.062 276.115,-277.105"/>
</g>
<!-- Christophe -->
<g id="node6" class="node"><title>Christophe</title>
<ellipse fill="none" stroke="black" cx="317.428" cy="-37.4767" rx="65.1077" ry="37.4533"/>
<text text-anchor="middle" x="317.428" y="-48.7767" font-family="Times,serif" font-size="14.00">Christophe</text>
<text text-anchor="middle" x="317.428" y="-33.7767" font-family="Times,serif" font-size="14.00">Reactive</text>
<text text-anchor="middle" x="317.428" y="-18.7767" font-family="Times,serif" font-size="14.00">programming</text>
</g>
<!-- Ryan&#45;&#45;Christophe -->
<g id="edge6" class="edge"><title>Ryan&#45;&#45;Christophe</title>
<path fill="none" stroke="black" d="M144.02,-99.9398C179.585,-87.0549 226.02,-70.2315 261.739,-57.2906"/>
</g>
<!-- Ryan&#45;&#45;Krzysztof -->
<g id="edge18" class="edge"><title>Ryan&#45;&#45;Krzysztof</title>
<path fill="none" stroke="black" d="M144.02,-139.014C175.531,-150.43 215.577,-164.938 249.14,-177.098"/>
</g>
<!-- MarcinM -->
<g id="node8" class="node"><title>MarcinM</title>
<ellipse fill="none" stroke="black" cx="317.428" cy="-119.477" rx="77.5641" ry="26.7407"/>
<text text-anchor="middle" x="317.428" y="-123.277" font-family="Times,serif" font-size="14.00">Marcin M</text>
<text text-anchor="middle" x="317.428" y="-108.277" font-family="Times,serif" font-size="14.00">Functional optics</text>
</g>
<!-- Ryan&#45;&#45;MarcinM -->
<g id="edge9" class="edge"><title>Ryan&#45;&#45;MarcinM</title>
<path fill="none" stroke="black" d="M166.721,-113.05C190.96,-112.607 217.703,-112.619 241.799,-113.087"/>
</g>
<!-- Ryan&#45;&#45;MarcinM -->
<g id="edge10" class="edge"><title>Ryan&#45;&#45;MarcinM</title>
<path fill="none" stroke="black" d="M166.721,-125.904C190.96,-126.347 217.703,-126.334 241.799,-125.866"/>
</g>
<!-- Filip -->
<g id="node9" class="node"><title>Filip</title>
<ellipse fill="none" stroke="black" cx="89.0955" cy="-365.477" rx="89.191" ry="37.4533"/>
<text text-anchor="middle" x="89.0955" y="-376.777" font-family="Times,serif" font-size="14.00">Filip</text>
<text text-anchor="middle" x="89.0955" y="-361.777" font-family="Times,serif" font-size="14.00">Really</text>
<text text-anchor="middle" x="89.0955" y="-346.777" font-family="Times,serif" font-size="14.00">Real&#45;World Haskell</text>
</g>
<!-- Filip&#45;&#45;Laurens -->
<g id="edge13" class="edge"><title>Filip&#45;&#45;Laurens</title>
<path fill="none" stroke="black" d="M145.313,-336.4C166.785,-327.8 191.609,-318.637 214.191,-310.477 234.366,-303.186 256.847,-295.249 275.579,-289.483"/>
</g>
<!-- Filip&#45;&#45;Laurens -->
<g id="edge14" class="edge"><title>Filip&#45;&#45;Laurens</title>
<path fill="none" stroke="black" d="M165.491,-346.095C181.547,-340.367 198.416,-334.177 214.191,-328.477 238.26,-319.779 265.61,-310.162 285.962,-301.709"/>
</g>
<!-- Filip&#45;&#45;Jakub -->
<g id="edge15" class="edge"><title>Filip&#45;&#45;Jakub</title>
<path fill="none" stroke="black" d="M153.443,-391.506C185.352,-404.618 223.864,-420.442 255.438,-433.416"/>
</g>
<!-- Piotr -->
<g id="node12" class="node"><title>Piotr</title>
<ellipse fill="none" stroke="black" cx="317.428" cy="-365.477" rx="77.5641" ry="37.4533"/>
<text text-anchor="middle" x="317.428" y="-376.777" font-family="Times,serif" font-size="14.00">Piotr</text>
<text text-anchor="middle" x="317.428" y="-361.777" font-family="Times,serif" font-size="14.00">Neural Networks</text>
<text text-anchor="middle" x="317.428" y="-346.777" font-family="Times,serif" font-size="14.00">as Category</text>
</g>
<!-- Filip&#45;&#45;Piotr -->
<g id="edge29" class="edge"><title>Filip&#45;&#45;Piotr</title>
<path fill="none" stroke="black" d="M176.954,-358.891C197.898,-358.625 220.114,-358.682 240.512,-359.063"/>
</g>
<!-- Filip&#45;&#45;Piotr -->
<g id="edge30" class="edge"><title>Filip&#45;&#45;Piotr</title>
<path fill="none" stroke="black" d="M176.954,-372.062C197.898,-372.329 220.114,-372.272 240.512,-371.891"/>
</g>
<!-- Tom -->
<g id="node11" class="node"><title>Tom</title>
<ellipse fill="none" stroke="black" cx="89.0955" cy="-280.477" rx="40.1111" ry="26.7407"/>
<text text-anchor="middle" x="89.0955" y="-284.277" font-family="Times,serif" font-size="14.00">Tom</text>
<text text-anchor="middle" x="89.0955" y="-269.277" font-family="Times,serif" font-size="14.00">Testing</text>
</g>
<!-- Tom&#45;&#45;Krzysztof -->
<g id="edge17" class="edge"><title>Tom&#45;&#45;Krzysztof</title>
<path fill="none" stroke="black" d="M125.46,-268.133C158.158,-256.72 207.653,-239.444 248.061,-225.34"/>
</g>
<!-- Tom&#45;&#45;MarcinM -->
<g id="edge25" class="edge"><title>Tom&#45;&#45;MarcinM</title>
<path fill="none" stroke="black" d="M121.591,-264.25C140.098,-256.705 162.806,-246.341 178.191,-230.477 206.468,-201.318 184.533,-174.229 214.191,-146.477 222.572,-138.633 232.764,-132.484 243.428,-127.788"/>
</g>
<!-- Tom&#45;&#45;MarcinM -->
<g id="edge26" class="edge"><title>Tom&#45;&#45;MarcinM</title>
<path fill="none" stroke="black" d="M129.428,-277.426C146.2,-271.753 164.92,-262.161 178.191,-248.477 206.468,-219.318 184.533,-192.229 214.191,-164.477 227.313,-152.198 244.872,-144.07 261.732,-138.238"/>
</g>
<!-- Tom&#45;&#45;Jakub -->
<g id="edge16" class="edge"><title>Tom&#45;&#45;Jakub</title>
<path fill="none" stroke="black" d="M127.397,-289.827C144.76,-295.819 164.544,-305.219 178.191,-319.477 208.551,-351.196 184.055,-379.543 214.191,-411.477 224.046,-421.919 236.669,-430.24 249.659,-436.796"/>
</g>
<!-- Tom&#45;&#45;Piotr -->
<g id="edge19" class="edge"><title>Tom&#45;&#45;Piotr</title>
<path fill="none" stroke="black" d="M127.216,-289.264C163.836,-301.162 220.229,-322.102 261.93,-339.141"/>
</g>
<!-- Tom&#45;&#45;Piotr -->
<g id="edge20" class="edge"><title>Tom&#45;&#45;Piotr</title>
<path fill="none" stroke="black" d="M121.092,-296.934C154.022,-311.265 207.093,-331.664 249.612,-346.603"/>
</g>
<!-- Chris -->
<g id="node13" class="node"><title>Chris</title>
<ellipse fill="none" stroke="black" cx="89.0955" cy="-622.477" rx="84.2917" ry="37.4533"/>
<text text-anchor="middle" x="89.0955" y="-633.777" font-family="Times,serif" font-size="14.00">Chris</text>
<text text-anchor="middle" x="89.0955" y="-618.777" font-family="Times,serif" font-size="14.00">Deploying Haskell</text>
<text text-anchor="middle" x="89.0955" y="-603.777" font-family="Times,serif" font-size="14.00">to the Cloud</text>
</g>
<!-- Michał -->
<g id="node14" class="node"><title>Michał</title>
<ellipse fill="none" stroke="black" cx="317.428" cy="-622.477" rx="103.476" ry="37.4533"/>
<text text-anchor="middle" x="317.428" y="-633.777" font-family="Times,serif" font-size="14.00">Michał</text>
<text text-anchor="middle" x="317.428" y="-618.777" font-family="Times,serif" font-size="14.00">Web development with</text>
<text text-anchor="middle" x="317.428" y="-603.777" font-family="Times,serif" font-size="14.00">Servant and ReasonML</text>
</g>
<!-- Chris&#45;&#45;Michał -->
<g id="edge23" class="edge"><title>Chris&#45;&#45;Michał</title>
<path fill="none" stroke="black" d="M161.709,-603.492C183.207,-602.124 207.029,-601.865 229.408,-602.715"/>
</g>
<!-- Chris&#45;&#45;Michał -->
<g id="edge24" class="edge"><title>Chris&#45;&#45;Michał</title>
<path fill="none" stroke="black" d="M172.127,-615.959C186.296,-615.743 201.171,-615.677 215.765,-615.763"/>
</g>
<!-- Chris&#45;&#45;Michał -->
<g id="edge27" class="edge"><title>Chris&#45;&#45;Michał</title>
<path fill="none" stroke="black" d="M172.127,-628.994C186.296,-629.211 201.171,-629.276 215.765,-629.19"/>
</g>
<!-- Chris&#45;&#45;Michał -->
<g id="edge28" class="edge"><title>Chris&#45;&#45;Michał</title>
<path fill="none" stroke="black" d="M161.709,-641.461C183.207,-642.829 207.029,-643.088 229.408,-642.238"/>
</g>
</g>
</svg>
