<?xml version="1.0" encoding="UTF-8" standalone="no"?>
<!DOCTYPE svg PUBLIC "-//W3C//DTD SVG 1.1//EN"
 "http://www.w3.org/Graphics/SVG/1.1/DTD/svg11.dtd">
<!-- Generated by graphviz version 2.38.0 (20140413.2041)
 -->
<!-- Title: scheduleClashes Pages: 1 -->
<svg width="583pt" height="906pt"
 viewBox="0.00 0.00 582.67 906.08" xmlns="http://www.w3.org/2000/svg" xmlns:xlink="http://www.w3.org/1999/xlink">
<g id="graph0" class="graph" transform="scale(1 1) rotate(0) translate(4 902.083)">
<title>scheduleClashes</title>
<polygon fill="white" stroke="none" points="-4,4 -4,-902.083 578.666,-902.083 578.666,4 -4,4"/>
<!-- Julie -->
<g id="node1" class="node"><title>Julie</title>
<ellipse fill="none" stroke="black" cx="89.0955" cy="-276.083" rx="56.6372" ry="37.4533"/>
<text text-anchor="middle" x="89.0955" y="-287.383" font-family="Times,serif" font-size="14.00">Julie</text>
<text text-anchor="middle" x="89.0955" y="-272.383" font-family="Times,serif" font-size="14.00">Profunctors</text>
<text text-anchor="middle" x="89.0955" y="-257.383" font-family="Times,serif" font-size="14.00">6x</text>
</g>
<!-- Krzysztof -->
<g id="node2" class="node"><title>Krzysztof</title>
<ellipse fill="none" stroke="black" cx="471.428" cy="-276.083" rx="89.191" ry="48.1667"/>
<text text-anchor="middle" x="471.428" y="-294.883" font-family="Times,serif" font-size="14.00">Krzysztof</text>
<text text-anchor="middle" x="471.428" y="-279.883" font-family="Times,serif" font-size="14.00">Intoduction</text>
<text text-anchor="middle" x="471.428" y="-264.883" font-family="Times,serif" font-size="14.00">to Dependant Types</text>
<text text-anchor="middle" x="471.428" y="-249.883" font-family="Times,serif" font-size="14.00">4x</text>
</g>
<!-- Julie&#45;&#45;Krzysztof -->
<g id="edge1" class="edge"><title>Julie&#45;&#45;Krzysztof</title>
<path fill="none" stroke="black" d="M141.389,-261.718C204.651,-254.893 312.997,-254.005 387.99,-259.054"/>
</g>
<!-- Julie&#45;&#45;Krzysztof -->
<g id="edge2" class="edge"><title>Julie&#45;&#45;Krzysztof</title>
<path fill="none" stroke="black" d="M145.399,-271.155C207.618,-269.06 309.521,-268.772 382.646,-270.291"/>
</g>
<!-- Julie&#45;&#45;Krzysztof -->
<g id="edge11" class="edge"><title>Julie&#45;&#45;Krzysztof</title>
<path fill="none" stroke="black" d="M145.399,-281.011C207.618,-283.107 309.521,-283.395 382.646,-281.875"/>
</g>
<!-- Julie&#45;&#45;Krzysztof -->
<g id="edge12" class="edge"><title>Julie&#45;&#45;Krzysztof</title>
<path fill="none" stroke="black" d="M141.389,-290.449C204.651,-297.274 312.997,-298.162 387.99,-293.113"/>
</g>
<!-- Jakub -->
<g id="node10" class="node"><title>Jakub</title>
<ellipse fill="none" stroke="black" cx="471.428" cy="-162.083" rx="82.9636" ry="48.1667"/>
<text text-anchor="middle" x="471.428" y="-180.883" font-family="Times,serif" font-size="14.00">Jakub</text>
<text text-anchor="middle" x="471.428" y="-165.883" font-family="Times,serif" font-size="14.00">Serverless Haskell</text>
<text text-anchor="middle" x="471.428" y="-150.883" font-family="Times,serif" font-size="14.00">on Azure</text>
<text text-anchor="middle" x="471.428" y="-135.883" font-family="Times,serif" font-size="14.00">4x</text>
</g>
<!-- Julie&#45;&#45;Jakub -->
<g id="edge21" class="edge"><title>Julie&#45;&#45;Jakub</title>
<path fill="none" stroke="black" d="M137.88,-257.102C202.222,-235.36 317.448,-200.53 393.928,-179.476"/>
</g>
<!-- Julie&#45;&#45;Jakub -->
<g id="edge22" class="edge"><title>Julie&#45;&#45;Jakub</title>
<path fill="none" stroke="black" d="M143.38,-264.971C210.947,-247.07 327.559,-212.276 401.744,-188.006"/>
</g>
<!-- Chris -->
<g id="node3" class="node"><title>Chris</title>
<ellipse fill="none" stroke="black" cx="89.0955" cy="-380.083" rx="84.2917" ry="48.1667"/>
<text text-anchor="middle" x="89.0955" y="-398.883" font-family="Times,serif" font-size="14.00">Chris</text>
<text text-anchor="middle" x="89.0955" y="-383.883" font-family="Times,serif" font-size="14.00">Deploying Haskell</text>
<text text-anchor="middle" x="89.0955" y="-368.883" font-family="Times,serif" font-size="14.00">to the Cloud</text>
<text text-anchor="middle" x="89.0955" y="-353.883" font-family="Times,serif" font-size="14.00">4x</text>
</g>
<!-- Carter -->
<g id="node4" class="node"><title>Carter</title>
<ellipse fill="none" stroke="black" cx="471.428" cy="-380.083" rx="101.233" ry="37.4533"/>
<text text-anchor="middle" x="471.428" y="-391.383" font-family="Times,serif" font-size="14.00">Carter</text>
<text text-anchor="middle" x="471.428" y="-376.383" font-family="Times,serif" font-size="14.00">Linear dependant types</text>
<text text-anchor="middle" x="471.428" y="-361.383" font-family="Times,serif" font-size="14.00">4x</text>
</g>
<!-- Chris&#45;&#45;Carter -->
<g id="edge3" class="edge"><title>Chris&#45;&#45;Carter</title>
<path fill="none" stroke="black" d="M168.44,-363.338C230.523,-358.903 317.269,-358.677 381.868,-362.659"/>
</g>
<!-- Chris&#45;&#45;Carter -->
<g id="edge4" class="edge"><title>Chris&#45;&#45;Carter</title>
<path fill="none" stroke="black" d="M173.091,-374.394C231.45,-373.095 309.802,-372.989 371.425,-374.076"/>
</g>
<!-- Chris&#45;&#45;Carter -->
<g id="edge7" class="edge"><title>Chris&#45;&#45;Carter</title>
<path fill="none" stroke="black" d="M173.091,-385.772C231.45,-387.071 309.802,-387.178 371.425,-386.09"/>
</g>
<!-- Chris&#45;&#45;Carter -->
<g id="edge8" class="edge"><title>Chris&#45;&#45;Carter</title>
<path fill="none" stroke="black" d="M168.44,-396.829C230.523,-401.263 317.269,-401.489 381.868,-397.507"/>
</g>
<!-- Ryan -->
<g id="node5" class="node"><title>Ryan</title>
<ellipse fill="none" stroke="black" cx="89.0955" cy="-588.083" rx="79.8063" ry="37.4533"/>
<text text-anchor="middle" x="89.0955" y="-599.383" font-family="Times,serif" font-size="14.00">Ryan</text>
<text text-anchor="middle" x="89.0955" y="-584.383" font-family="Times,serif" font-size="14.00">NAND&#45;&gt;Lambda</text>
<text text-anchor="middle" x="89.0955" y="-569.383" font-family="Times,serif" font-size="14.00">5x</text>
</g>
<!-- MarcinM -->
<g id="node6" class="node"><title>MarcinM</title>
<ellipse fill="none" stroke="black" cx="471.428" cy="-588.083" rx="77.5641" ry="37.4533"/>
<text text-anchor="middle" x="471.428" y="-599.383" font-family="Times,serif" font-size="14.00">Marcin M</text>
<text text-anchor="middle" x="471.428" y="-584.383" font-family="Times,serif" font-size="14.00">Functional optics</text>
<text text-anchor="middle" x="471.428" y="-569.383" font-family="Times,serif" font-size="14.00">4x</text>
</g>
<!-- Ryan&#45;&#45;MarcinM -->
<g id="edge5" class="edge"><title>Ryan&#45;&#45;MarcinM</title>
<path fill="none" stroke="black" d="M161.187,-571.884C229.773,-566.44 332.938,-566.483 400.969,-572.015"/>
</g>
<!-- Ryan&#45;&#45;MarcinM -->
<g id="edge6" class="edge"><title>Ryan&#45;&#45;MarcinM</title>
<path fill="none" stroke="black" d="M168.44,-582.501C234.655,-580.925 328.924,-580.944 394.457,-582.559"/>
</g>
<!-- Ryan&#45;&#45;MarcinM -->
<g id="edge9" class="edge"><title>Ryan&#45;&#45;MarcinM</title>
<path fill="none" stroke="black" d="M168.44,-593.665C234.655,-595.242 328.924,-595.222 394.457,-593.608"/>
</g>
<!-- Ryan&#45;&#45;MarcinM -->
<g id="edge10" class="edge"><title>Ryan&#45;&#45;MarcinM</title>
<path fill="none" stroke="black" d="M161.187,-604.282C229.773,-609.727 332.938,-609.683 400.969,-604.151"/>
</g>
<!-- Christophe -->
<g id="node11" class="node"><title>Christophe</title>
<ellipse fill="none" stroke="black" cx="471.428" cy="-484.083" rx="65.1077" ry="48.1667"/>
<text text-anchor="middle" x="471.428" y="-502.883" font-family="Times,serif" font-size="14.00">Christophe</text>
<text text-anchor="middle" x="471.428" y="-487.883" font-family="Times,serif" font-size="14.00">Reactive</text>
<text text-anchor="middle" x="471.428" y="-472.883" font-family="Times,serif" font-size="14.00">programming</text>
<text text-anchor="middle" x="471.428" y="-457.883" font-family="Times,serif" font-size="14.00">1x</text>
</g>
<!-- Ryan&#45;&#45;Christophe -->
<g id="edge18" class="edge"><title>Ryan&#45;&#45;Christophe</title>
<path fill="none" stroke="black" d="M158.531,-569.37C230.176,-549.779 341.592,-519.313 410.063,-500.59"/>
</g>
<!-- Filip -->
<g id="node7" class="node"><title>Filip</title>
<ellipse fill="none" stroke="black" cx="89.0955" cy="-692.083" rx="89.191" ry="48.1667"/>
<text text-anchor="middle" x="89.0955" y="-710.883" font-family="Times,serif" font-size="14.00">Filip</text>
<text text-anchor="middle" x="89.0955" y="-695.883" font-family="Times,serif" font-size="14.00">Really</text>
<text text-anchor="middle" x="89.0955" y="-680.883" font-family="Times,serif" font-size="14.00">Real&#45;World Haskell</text>
<text text-anchor="middle" x="89.0955" y="-665.883" font-family="Times,serif" font-size="14.00">5x</text>
</g>
<!-- Laurens -->
<g id="node8" class="node"><title>Laurens</title>
<ellipse fill="none" stroke="black" cx="471.428" cy="-692.083" rx="42.3529" ry="37.4533"/>
<text text-anchor="middle" x="471.428" y="-703.383" font-family="Times,serif" font-size="14.00">Laurens</text>
<text text-anchor="middle" x="471.428" y="-688.383" font-family="Times,serif" font-size="14.00">STM</text>
<text text-anchor="middle" x="471.428" y="-673.383" font-family="Times,serif" font-size="14.00">5x</text>
</g>
<!-- Filip&#45;&#45;Laurens -->
<g id="edge13" class="edge"><title>Filip&#45;&#45;Laurens</title>
<path fill="none" stroke="black" d="M168.44,-669.756C249.333,-662.052 372.096,-663.874 433.184,-675.223"/>
</g>
<!-- Filip&#45;&#45;Laurens -->
<g id="edge14" class="edge"><title>Filip&#45;&#45;Laurens</title>
<path fill="none" stroke="black" d="M175.924,-680.582C255.235,-677.191 369.616,-678.115 429.829,-683.351"/>
</g>
<!-- Filip&#45;&#45;Laurens -->
<g id="edge15" class="edge"><title>Filip&#45;&#45;Laurens</title>
<path fill="none" stroke="black" d="M178.307,-692.083C257.087,-692.083 369.01,-692.083 428.866,-692.083"/>
</g>
<!-- Filip&#45;&#45;Laurens -->
<g id="edge29" class="edge"><title>Filip&#45;&#45;Laurens</title>
<path fill="none" stroke="black" d="M175.924,-703.585C255.235,-706.975 369.616,-706.052 429.829,-700.815"/>
</g>
<!-- Filip&#45;&#45;Laurens -->
<g id="edge30" class="edge"><title>Filip&#45;&#45;Laurens</title>
<path fill="none" stroke="black" d="M168.44,-714.41C249.333,-722.115 372.096,-720.292 433.184,-708.944"/>
</g>
<!-- Tom -->
<g id="node9" class="node"><title>Tom</title>
<ellipse fill="none" stroke="black" cx="89.0955" cy="-48.0833" rx="40.1111" ry="37.4533"/>
<text text-anchor="middle" x="89.0955" y="-59.3833" font-family="Times,serif" font-size="14.00">Tom</text>
<text text-anchor="middle" x="89.0955" y="-44.3833" font-family="Times,serif" font-size="14.00">Testing</text>
<text text-anchor="middle" x="89.0955" y="-29.3833" font-family="Times,serif" font-size="14.00">6x</text>
</g>
<!-- Tom&#45;&#45;Jakub -->
<g id="edge16" class="edge"><title>Tom&#45;&#45;Jakub</title>
<path fill="none" stroke="black" d="M128.534,-56.0479C148.524,-63.1291 173.469,-72.6928 196.191,-80.0833 264.479,-102.294 343.901,-122.877 399.645,-138.146"/>
</g>
<!-- Tom&#45;&#45;Jakub -->
<g id="edge17" class="edge"><title>Tom&#45;&#45;Jakub</title>
<path fill="none" stroke="black" d="M122.74,-69.4948C143.555,-79.2108 171.215,-89.9599 196.191,-98.0833 260.965,-119.151 335.757,-138.754 390.856,-150.912"/>
</g>
<!-- Piotr -->
<g id="node12" class="node"><title>Piotr</title>
<ellipse fill="none" stroke="black" cx="471.428" cy="-48.0833" rx="77.5641" ry="48.1667"/>
<text text-anchor="middle" x="471.428" y="-66.8833" font-family="Times,serif" font-size="14.00">Piotr</text>
<text text-anchor="middle" x="471.428" y="-51.8833" font-family="Times,serif" font-size="14.00">Neural Networks</text>
<text text-anchor="middle" x="471.428" y="-36.8833" font-family="Times,serif" font-size="14.00">as Category</text>
<text text-anchor="middle" x="471.428" y="-21.8833" font-family="Times,serif" font-size="14.00">4x</text>
</g>
<!-- Tom&#45;&#45;Piotr -->
<g id="edge19" class="edge"><title>Tom&#45;&#45;Piotr</title>
<path fill="none" stroke="black" d="M127.256,-35.4496C189.873,-26.7102 317.464,-25.4919 398.197,-31.7945"/>
</g>
<!-- Tom&#45;&#45;Piotr -->
<g id="edge20" class="edge"><title>Tom&#45;&#45;Piotr</title>
<path fill="none" stroke="black" d="M129.365,-43.7759C191.618,-40.9985 314.082,-40.5896 394.063,-42.5493"/>
</g>
<!-- Tom&#45;&#45;Piotr -->
<g id="edge25" class="edge"><title>Tom&#45;&#45;Piotr</title>
<path fill="none" stroke="black" d="M129.365,-52.3906C191.618,-55.168 314.082,-55.5769 394.063,-53.6173"/>
</g>
<!-- Tom&#45;&#45;Piotr -->
<g id="edge26" class="edge"><title>Tom&#45;&#45;Piotr</title>
<path fill="none" stroke="black" d="M127.256,-60.717C189.873,-69.4563 317.464,-70.6747 398.197,-64.3721"/>
</g>
<!-- MarcinS -->
<g id="node13" class="node"><title>MarcinS</title>
<ellipse fill="none" stroke="black" cx="89.0955" cy="-796.083" rx="77.1494" ry="37.4533"/>
<text text-anchor="middle" x="89.0955" y="-807.383" font-family="Times,serif" font-size="14.00">Marcin S</text>
<text text-anchor="middle" x="89.0955" y="-792.383" font-family="Times,serif" font-size="14.00">Category Theory</text>
<text text-anchor="middle" x="89.0955" y="-777.383" font-family="Times,serif" font-size="14.00">4x</text>
</g>
<!-- Michał -->
<g id="node14" class="node"><title>Michał</title>
<ellipse fill="none" stroke="black" cx="471.428" cy="-796.083" rx="103.476" ry="48.1667"/>
<text text-anchor="middle" x="471.428" y="-814.883" font-family="Times,serif" font-size="14.00">Michał</text>
<text text-anchor="middle" x="471.428" y="-799.883" font-family="Times,serif" font-size="14.00">Web development with</text>
<text text-anchor="middle" x="471.428" y="-784.883" font-family="Times,serif" font-size="14.00">Servant and ReasonML</text>
<text text-anchor="middle" x="471.428" y="-769.883" font-family="Times,serif" font-size="14.00">4x</text>
</g>
<!-- MarcinS&#45;&#45;Michał -->
<g id="edge23" class="edge"><title>MarcinS&#45;&#45;Michał</title>
<path fill="none" stroke="black" d="M158.971,-780.063C219.444,-775.103 308.004,-774.505 375.245,-778.27"/>
</g>
<!-- MarcinS&#45;&#45;Michał -->
<g id="edge24" class="edge"><title>MarcinS&#45;&#45;Michał</title>
<path fill="none" stroke="black" d="M165.692,-790.568C223.858,-789.127 304.824,-788.947 368.68,-790.029"/>
</g>
<!-- MarcinS&#45;&#45;Michał -->
<g id="edge27" class="edge"><title>MarcinS&#45;&#45;Michał</title>
<path fill="none" stroke="black" d="M165.692,-801.598C223.858,-803.039 304.824,-803.219 368.68,-802.138"/>
</g>
<!-- MarcinS&#45;&#45;Michał -->
<g id="edge28" class="edge"><title>MarcinS&#45;&#45;Michał</title>
<path fill="none" stroke="black" d="M158.971,-812.103C219.444,-817.064 308.004,-817.661 375.245,-813.896"/>
</g>
<!-- beginners -->
<g id="node15" class="node"><title>beginners</title>
<text text-anchor="middle" x="89.0955" y="-876.383" font-family="Times,serif" font-size="14.00">Beginners track</text>
</g>
<!-- advanced -->
<g id="node16" class="node"><title>advanced</title>
<text text-anchor="middle" x="471.428" y="-876.383" font-family="Times,serif" font-size="14.00">Advanced track</text>
</g>
<!-- beginners&#45;&#45;advanced -->
<g id="edge31" class="edge"><title>beginners&#45;&#45;advanced</title>
<path fill="none" stroke="black" d="M140.208,-880.083C213.027,-880.083 347.324,-880.083 420.205,-880.083"/>
<text text-anchor="middle" x="273.191" y="-883.883" font-family="Times,serif" font-size="14.00">scheduled concurrently with</text>
</g>
</g>
</svg>
