<?xml version="1.0" encoding="UTF-8" standalone="no"?>
<!DOCTYPE svg PUBLIC "-//W3C//DTD SVG 1.1//EN"
 "http://www.w3.org/Graphics/SVG/1.1/DTD/svg11.dtd">
<!-- Generated by graphviz version 2.38.0 (20140413.2041)
 -->
<!-- Title: scheduleClashes Pages: 1 -->
<svg width="430pt" height="722pt"
 viewBox="0.00 0.00 430.11 721.87" xmlns="http://www.w3.org/2000/svg" xmlns:xlink="http://www.w3.org/1999/xlink">
<g id="graph0" class="graph" transform="scale(1 1) rotate(0) translate(4 717.87)">
<title>scheduleClashes</title>
<polygon fill="white" stroke="none" points="-4,4 -4,-717.87 426.108,-717.87 426.108,4 -4,4"/>
<!-- Julie -->
<g id="node1" class="node"><title>Julie</title>
<ellipse fill="none" stroke="black" cx="51" cy="-191.87" rx="27" ry="26.7407"/>
<text text-anchor="middle" x="51" y="-195.67" font-family="Times,serif" font-size="14.00">???</text>
<text text-anchor="middle" x="51" y="-180.67" font-family="Times,serif" font-size="14.00">6x</text>
</g>
<!-- Krzysztof -->
<g id="node2" class="node"><title>Krzysztof</title>
<ellipse fill="none" stroke="black" cx="357.054" cy="-191.87" rx="27" ry="26.7407"/>
<text text-anchor="middle" x="357.054" y="-195.67" font-family="Times,serif" font-size="14.00">???</text>
<text text-anchor="middle" x="357.054" y="-180.67" font-family="Times,serif" font-size="14.00">4x</text>
</g>
<!-- Julie&#45;&#45;Krzysztof -->
<g id="edge1" class="edge"><title>Julie&#45;&#45;Krzysztof</title>
<path fill="none" stroke="black" d="M75.6056,-180.393C132.254,-168.709 275.407,-168.696 332.254,-180.353"/>
</g>
<!-- Julie&#45;&#45;Krzysztof -->
<g id="edge2" class="edge"><title>Julie&#45;&#45;Krzysztof</title>
<path fill="none" stroke="black" d="M77.9235,-187.89C135.368,-184.195 272.813,-184.197 330.196,-187.894"/>
</g>
<!-- Julie&#45;&#45;Krzysztof -->
<g id="edge11" class="edge"><title>Julie&#45;&#45;Krzysztof</title>
<path fill="none" stroke="black" d="M77.9235,-195.85C135.368,-199.545 272.813,-199.543 330.196,-195.846"/>
</g>
<!-- Julie&#45;&#45;Krzysztof -->
<g id="edge12" class="edge"><title>Julie&#45;&#45;Krzysztof</title>
<path fill="none" stroke="black" d="M75.6056,-203.347C132.254,-215.031 275.407,-215.044 332.254,-203.387"/>
</g>
<!-- Jakub -->
<g id="node10" class="node"><title>Jakub</title>
<ellipse fill="none" stroke="black" cx="357.054" cy="-109.87" rx="27" ry="26.7407"/>
<text text-anchor="middle" x="357.054" y="-113.67" font-family="Times,serif" font-size="14.00">???</text>
<text text-anchor="middle" x="357.054" y="-98.6701" font-family="Times,serif" font-size="14.00">4x</text>
</g>
<!-- Julie&#45;&#45;Jakub -->
<g id="edge21" class="edge"><title>Julie&#45;&#45;Jakub</title>
<path fill="none" stroke="black" d="M76.1127,-181.507C132.296,-162.549 271.556,-124.946 329.793,-112.951"/>
</g>
<!-- Julie&#45;&#45;Jakub -->
<g id="edge22" class="edge"><title>Julie&#45;&#45;Jakub</title>
<path fill="none" stroke="black" d="M77.9235,-188.859C135.942,-176.944 275.57,-139.249 331.893,-120.249"/>
</g>
<!-- Chris -->
<g id="node3" class="node"><title>Chris</title>
<ellipse fill="none" stroke="black" cx="51" cy="-270.87" rx="27" ry="26.7407"/>
<text text-anchor="middle" x="51" y="-274.67" font-family="Times,serif" font-size="14.00">???</text>
<text text-anchor="middle" x="51" y="-259.67" font-family="Times,serif" font-size="14.00">4x</text>
</g>
<!-- Carter -->
<g id="node4" class="node"><title>Carter</title>
<ellipse fill="none" stroke="black" cx="357.054" cy="-270.87" rx="27" ry="26.7407"/>
<text text-anchor="middle" x="357.054" y="-274.67" font-family="Times,serif" font-size="14.00">???</text>
<text text-anchor="middle" x="357.054" y="-259.67" font-family="Times,serif" font-size="14.00">4x</text>
</g>
<!-- Chris&#45;&#45;Carter -->
<g id="edge3" class="edge"><title>Chris&#45;&#45;Carter</title>
<path fill="none" stroke="black" d="M75.6056,-259.393C132.254,-247.709 275.407,-247.696 332.254,-259.353"/>
</g>
<!-- Chris&#45;&#45;Carter -->
<g id="edge4" class="edge"><title>Chris&#45;&#45;Carter</title>
<path fill="none" stroke="black" d="M77.9235,-266.89C135.368,-263.195 272.813,-263.197 330.196,-266.894"/>
</g>
<!-- Chris&#45;&#45;Carter -->
<g id="edge7" class="edge"><title>Chris&#45;&#45;Carter</title>
<path fill="none" stroke="black" d="M77.9235,-274.85C135.368,-278.545 272.813,-278.543 330.196,-274.846"/>
</g>
<!-- Chris&#45;&#45;Carter -->
<g id="edge8" class="edge"><title>Chris&#45;&#45;Carter</title>
<path fill="none" stroke="black" d="M75.6056,-282.347C132.254,-294.031 275.407,-294.044 332.254,-282.387"/>
</g>
<!-- Ryan -->
<g id="node5" class="node"><title>Ryan</title>
<ellipse fill="none" stroke="black" cx="51" cy="-456.87" rx="27" ry="26.7407"/>
<text text-anchor="middle" x="51" y="-460.67" font-family="Times,serif" font-size="14.00">???</text>
<text text-anchor="middle" x="51" y="-445.67" font-family="Times,serif" font-size="14.00">5x</text>
</g>
<!-- MarcinM -->
<g id="node6" class="node"><title>MarcinM</title>
<ellipse fill="none" stroke="black" cx="357.054" cy="-456.87" rx="27" ry="26.7407"/>
<text text-anchor="middle" x="357.054" y="-460.67" font-family="Times,serif" font-size="14.00">???</text>
<text text-anchor="middle" x="357.054" y="-445.67" font-family="Times,serif" font-size="14.00">4x</text>
</g>
<!-- Ryan&#45;&#45;MarcinM -->
<g id="edge5" class="edge"><title>Ryan&#45;&#45;MarcinM</title>
<path fill="none" stroke="black" d="M75.6056,-445.393C132.254,-433.709 275.407,-433.696 332.254,-445.353"/>
</g>
<!-- Ryan&#45;&#45;MarcinM -->
<g id="edge6" class="edge"><title>Ryan&#45;&#45;MarcinM</title>
<path fill="none" stroke="black" d="M77.9235,-452.89C135.368,-449.195 272.813,-449.197 330.196,-452.894"/>
</g>
<!-- Ryan&#45;&#45;MarcinM -->
<g id="edge9" class="edge"><title>Ryan&#45;&#45;MarcinM</title>
<path fill="none" stroke="black" d="M77.9235,-460.85C135.368,-464.545 272.813,-464.543 330.196,-460.846"/>
</g>
<!-- Ryan&#45;&#45;MarcinM -->
<g id="edge10" class="edge"><title>Ryan&#45;&#45;MarcinM</title>
<path fill="none" stroke="black" d="M75.6056,-468.347C132.254,-480.031 275.407,-480.044 332.254,-468.387"/>
</g>
<!-- Christophe -->
<g id="node11" class="node"><title>Christophe</title>
<ellipse fill="none" stroke="black" cx="357.054" cy="-363.87" rx="65.1077" ry="48.1667"/>
<text text-anchor="middle" x="357.054" y="-382.67" font-family="Times,serif" font-size="14.00">Christophe</text>
<text text-anchor="middle" x="357.054" y="-367.67" font-family="Times,serif" font-size="14.00">Reactive</text>
<text text-anchor="middle" x="357.054" y="-352.67" font-family="Times,serif" font-size="14.00">programming</text>
<text text-anchor="middle" x="357.054" y="-337.67" font-family="Times,serif" font-size="14.00">1x</text>
</g>
<!-- Ryan&#45;&#45;Christophe -->
<g id="edge18" class="edge"><title>Ryan&#45;&#45;Christophe</title>
<path fill="none" stroke="black" d="M77.1407,-449.18C124.947,-434.558 230.125,-402.387 296.786,-381.998"/>
</g>
<!-- Filip -->
<g id="node7" class="node"><title>Filip</title>
<ellipse fill="none" stroke="black" cx="51" cy="-544.87" rx="27" ry="26.7407"/>
<text text-anchor="middle" x="51" y="-548.67" font-family="Times,serif" font-size="14.00">???</text>
<text text-anchor="middle" x="51" y="-533.67" font-family="Times,serif" font-size="14.00">5x</text>
</g>
<!-- Laurens -->
<g id="node8" class="node"><title>Laurens</title>
<ellipse fill="none" stroke="black" cx="357.054" cy="-544.87" rx="42.3529" ry="37.4533"/>
<text text-anchor="middle" x="357.054" y="-556.17" font-family="Times,serif" font-size="14.00">Laurens</text>
<text text-anchor="middle" x="357.054" y="-541.17" font-family="Times,serif" font-size="14.00">STM</text>
<text text-anchor="middle" x="357.054" y="-526.17" font-family="Times,serif" font-size="14.00">5x</text>
</g>
<!-- Filip&#45;&#45;Laurens -->
<g id="edge13" class="edge"><title>Filip&#45;&#45;Laurens</title>
<path fill="none" stroke="black" d="M73.8668,-530.058C125.61,-515.052 255.987,-513.903 319.774,-526.611"/>
</g>
<!-- Filip&#45;&#45;Laurens -->
<g id="edge14" class="edge"><title>Filip&#45;&#45;Laurens</title>
<path fill="none" stroke="black" d="M76.882,-537.046C129.43,-530.085 252.114,-529.527 315.912,-535.371"/>
</g>
<!-- Filip&#45;&#45;Laurens -->
<g id="edge15" class="edge"><title>Filip&#45;&#45;Laurens</title>
<path fill="none" stroke="black" d="M78.1866,-544.87C131.052,-544.87 250.898,-544.87 314.539,-544.87"/>
</g>
<!-- Filip&#45;&#45;Laurens -->
<g id="edge29" class="edge"><title>Filip&#45;&#45;Laurens</title>
<path fill="none" stroke="black" d="M76.882,-552.694C129.43,-559.655 252.114,-560.213 315.912,-554.369"/>
</g>
<!-- Filip&#45;&#45;Laurens -->
<g id="edge30" class="edge"><title>Filip&#45;&#45;Laurens</title>
<path fill="none" stroke="black" d="M73.8668,-559.682C125.61,-574.688 255.987,-575.837 319.774,-563.129"/>
</g>
<!-- Tom -->
<g id="node9" class="node"><title>Tom</title>
<ellipse fill="none" stroke="black" cx="51" cy="-26.8701" rx="27" ry="26.7407"/>
<text text-anchor="middle" x="51" y="-30.6701" font-family="Times,serif" font-size="14.00">???</text>
<text text-anchor="middle" x="51" y="-15.6701" font-family="Times,serif" font-size="14.00">6x</text>
</g>
<!-- Tom&#45;&#45;Jakub -->
<g id="edge16" class="edge"><title>Tom&#45;&#45;Jakub</title>
<path fill="none" stroke="black" d="M76.9031,-35.2165C89.3847,-41.9134 105.004,-50.4133 120,-55.8701 193.901,-82.7609 286.955,-94.4488 330.888,-102.336"/>
</g>
<!-- Tom&#45;&#45;Jakub -->
<g id="edge17" class="edge"><title>Tom&#45;&#45;Jakub</title>
<path fill="none" stroke="black" d="M69.7082,-46.3228C83.0054,-56.3299 101.954,-67.3034 120,-73.8701 193.509,-100.618 285.968,-112.324 330.185,-113.138"/>
</g>
<!-- Piotr -->
<g id="node12" class="node"><title>Piotr</title>
<ellipse fill="none" stroke="black" cx="357.054" cy="-26.8701" rx="27" ry="26.7407"/>
<text text-anchor="middle" x="357.054" y="-30.6701" font-family="Times,serif" font-size="14.00">???</text>
<text text-anchor="middle" x="357.054" y="-15.6701" font-family="Times,serif" font-size="14.00">4x</text>
</g>
<!-- Tom&#45;&#45;Piotr -->
<g id="edge19" class="edge"><title>Tom&#45;&#45;Piotr</title>
<path fill="none" stroke="black" d="M75.6056,-15.393C132.254,-3.7091 275.407,-3.69576 332.254,-15.353"/>
</g>
<!-- Tom&#45;&#45;Piotr -->
<g id="edge20" class="edge"><title>Tom&#45;&#45;Piotr</title>
<path fill="none" stroke="black" d="M77.9235,-22.8903C135.368,-19.1952 272.813,-19.1967 330.196,-22.8945"/>
</g>
<!-- Tom&#45;&#45;Piotr -->
<g id="edge25" class="edge"><title>Tom&#45;&#45;Piotr</title>
<path fill="none" stroke="black" d="M77.9235,-30.8499C135.368,-34.5449 272.813,-34.5435 330.196,-30.8456"/>
</g>
<!-- Tom&#45;&#45;Piotr -->
<g id="edge26" class="edge"><title>Tom&#45;&#45;Piotr</title>
<path fill="none" stroke="black" d="M75.6056,-38.3471C132.254,-50.031 275.407,-50.0444 332.254,-38.3871"/>
</g>
<!-- MarcinS -->
<g id="node13" class="node"><title>MarcinS</title>
<ellipse fill="none" stroke="black" cx="51" cy="-632.87" rx="27" ry="26.7407"/>
<text text-anchor="middle" x="51" y="-636.67" font-family="Times,serif" font-size="14.00">???</text>
<text text-anchor="middle" x="51" y="-621.67" font-family="Times,serif" font-size="14.00">4x</text>
</g>
<!-- Michał -->
<g id="node14" class="node"><title>Michał</title>
<ellipse fill="none" stroke="black" cx="357.054" cy="-632.87" rx="27" ry="26.7407"/>
<text text-anchor="middle" x="357.054" y="-636.67" font-family="Times,serif" font-size="14.00">???</text>
<text text-anchor="middle" x="357.054" y="-621.67" font-family="Times,serif" font-size="14.00">4x</text>
</g>
<!-- MarcinS&#45;&#45;Michał -->
<g id="edge23" class="edge"><title>MarcinS&#45;&#45;Michał</title>
<path fill="none" stroke="black" d="M75.6056,-621.393C132.254,-609.709 275.407,-609.696 332.254,-621.353"/>
</g>
<!-- MarcinS&#45;&#45;Michał -->
<g id="edge24" class="edge"><title>MarcinS&#45;&#45;Michał</title>
<path fill="none" stroke="black" d="M77.9235,-628.89C135.368,-625.195 272.813,-625.197 330.196,-628.894"/>
</g>
<!-- MarcinS&#45;&#45;Michał -->
<g id="edge27" class="edge"><title>MarcinS&#45;&#45;Michał</title>
<path fill="none" stroke="black" d="M77.9235,-636.85C135.368,-640.545 272.813,-640.543 330.196,-636.846"/>
</g>
<!-- MarcinS&#45;&#45;Michał -->
<g id="edge28" class="edge"><title>MarcinS&#45;&#45;Michał</title>
<path fill="none" stroke="black" d="M75.6056,-644.347C132.254,-656.031 275.407,-656.044 332.254,-644.387"/>
</g>
<!-- beginners -->
<g id="node15" class="node"><title>beginners</title>
<text text-anchor="middle" x="51" y="-692.17" font-family="Times,serif" font-size="14.00">Beginners track</text>
</g>
<!-- advanced -->
<g id="node16" class="node"><title>advanced</title>
<text text-anchor="middle" x="357.054" y="-692.17" font-family="Times,serif" font-size="14.00">Advanced track</text>
</g>
<!-- beginners&#45;&#45;advanced -->
<g id="edge31" class="edge"><title>beginners&#45;&#45;advanced</title>
<path fill="none" stroke="black" d="M102.208,-695.87C158.629,-695.87 249.676,-695.87 306.024,-695.87"/>
<text text-anchor="middle" x="197" y="-699.67" font-family="Times,serif" font-size="14.00">scheduled concurrently with</text>
</g>
</g>
</svg>
